<mxfile host="app.diagrams.net" agent="Mozilla/5.0 (Windows NT 10.0; Win64; x64) AppleWebKit/537.36 (KHTML, like Gecko) Chrome/133.0.0.0 Safari/537.36 Edg/133.0.0.0" version="26.0.16" pages="2">
  <diagram name="Current System" id="yMxgf07Nq944kcpFOSbm">
    <mxGraphModel dx="1303" dy="574" grid="1" gridSize="10" guides="1" tooltips="1" connect="1" arrows="1" fold="1" page="1" pageScale="1" pageWidth="827" pageHeight="1169" math="0" shadow="0">
      <root>
        <mxCell id="0" />
        <mxCell id="1" parent="0" />
        <mxCell id="4kCwEOFstAwxeWHMEMKd-1" value="" style="rounded=0;whiteSpace=wrap;html=1;movable=0;resizable=0;rotatable=0;deletable=0;editable=0;locked=1;connectable=0;" parent="1" vertex="1">
          <mxGeometry x="136" y="82" width="694" height="2158" as="geometry" />
        </mxCell>
        <mxCell id="4kCwEOFstAwxeWHMEMKd-2" value="&lt;div&gt;&lt;span style=&quot;font-size: 16px;&quot;&gt;&lt;font&gt;Peerless Wholesale Vending&lt;/font&gt;&lt;/span&gt;&lt;/div&gt;" style="text;html=1;align=center;verticalAlign=middle;whiteSpace=wrap;rounded=0;fillColor=#fad7ac;strokeColor=#b46504;movable=0;resizable=0;rotatable=0;deletable=0;editable=0;locked=1;connectable=0;" parent="1" vertex="1">
          <mxGeometry x="375" y="106" width="212" height="30" as="geometry" />
        </mxCell>
        <mxCell id="yWxOL_djojMHcs1YbIk0-27" style="rounded=0;orthogonalLoop=1;jettySize=auto;html=1;exitX=0.5;exitY=0.5;exitDx=0;exitDy=0;exitPerimeter=0;entryX=0;entryY=0.5;entryDx=0;entryDy=0;fontFamily=Helvetica;endArrow=none;startFill=0;movable=0;resizable=0;rotatable=0;deletable=0;editable=0;locked=1;connectable=0;" parent="1" source="yWxOL_djojMHcs1YbIk0-1" target="yWxOL_djojMHcs1YbIk0-25" edge="1">
          <mxGeometry relative="1" as="geometry" />
        </mxCell>
        <mxCell id="8xiwcoPiNjUW83ZuYsjP-3" style="rounded=0;orthogonalLoop=1;jettySize=auto;html=1;exitX=0.5;exitY=0.5;exitDx=0;exitDy=0;exitPerimeter=0;entryX=0;entryY=0.5;entryDx=0;entryDy=0;endArrow=none;startFill=0;fontFamily=Helvetica;movable=0;resizable=0;rotatable=0;deletable=0;editable=0;locked=1;connectable=0;" parent="1" source="yWxOL_djojMHcs1YbIk0-1" target="UpIuRAsAv8k0KQM6b4uX-5" edge="1">
          <mxGeometry relative="1" as="geometry">
            <mxPoint x="340" y="800" as="targetPoint" />
          </mxGeometry>
        </mxCell>
        <mxCell id="yWxOL_djojMHcs1YbIk0-1" value="&lt;span id=&quot;docs-internal-guid-72f9077b-7fff-bdef-1617-5ab4ec365b33&quot;&gt;&lt;span style=&quot;font-size: 9pt; background-color: transparent; font-variant-numeric: normal; font-variant-east-asian: normal; font-variant-alternates: normal; font-variant-position: normal; font-variant-emoji: normal; vertical-align: baseline; white-space: pre-wrap;&quot;&gt;Sales manager&lt;/span&gt;&lt;/span&gt;" style="shape=umlActor;verticalLabelPosition=bottom;verticalAlign=top;html=1;outlineConnect=0;fontFamily=Helvetica;movable=0;resizable=0;rotatable=0;deletable=0;editable=0;locked=1;connectable=0;" parent="1" vertex="1">
          <mxGeometry x="60" y="557" width="30" height="60" as="geometry" />
        </mxCell>
        <mxCell id="yWxOL_djojMHcs1YbIk0-29" style="rounded=0;orthogonalLoop=1;jettySize=auto;html=1;exitX=0.5;exitY=0.5;exitDx=0;exitDy=0;exitPerimeter=0;entryX=0;entryY=0.5;entryDx=0;entryDy=0;fontFamily=Helvetica;endArrow=none;startFill=0;movable=0;resizable=0;rotatable=0;deletable=0;editable=0;locked=1;connectable=0;" parent="1" target="yWxOL_djojMHcs1YbIk0-30" edge="1">
          <mxGeometry relative="1" as="geometry">
            <mxPoint x="220" y="210.3529411764706" as="targetPoint" />
            <mxPoint x="75.00000000000011" y="220" as="sourcePoint" />
          </mxGeometry>
        </mxCell>
        <mxCell id="yWxOL_djojMHcs1YbIk0-30" value="&lt;p class=&quot;p1&quot; style=&quot;margin: 0px; font-variant-numeric: normal; font-variant-east-asian: normal; font-variant-alternates: normal; font-size-adjust: none; font-kerning: auto; font-optical-sizing: auto; font-feature-settings: normal; font-variation-settings: normal; font-variant-position: normal; font-variant-emoji: normal; font-stretch: normal; line-height: normal;&quot;&gt;&lt;font&gt;Make telephone&amp;nbsp;&lt;/font&gt;&lt;span style=&quot;background-color: transparent; color: light-dark(rgb(0, 0, 0), rgb(255, 255, 255));&quot;&gt;&lt;font&gt;sales and d&lt;/font&gt;&lt;/span&gt;&lt;font style=&quot;background-color: transparent; color: light-dark(rgb(0, 0, 0), rgb(255, 255, 255));&quot;&gt;irect sales calls&lt;/font&gt;&lt;/p&gt;" style="ellipse;whiteSpace=wrap;html=1;align=center;fillColor=light-dark(#ea6b66, #1f2f1e);strokeColor=light-dark(#874a4a, #ff8888);fontFamily=Helvetica;movable=0;resizable=0;rotatable=0;deletable=0;editable=0;locked=1;connectable=0;" parent="1" vertex="1">
          <mxGeometry x="264" y="185" width="150" height="70" as="geometry" />
        </mxCell>
        <mxCell id="8xiwcoPiNjUW83ZuYsjP-5" style="rounded=0;orthogonalLoop=1;jettySize=auto;html=1;exitX=0.5;exitY=0.5;exitDx=0;exitDy=0;exitPerimeter=0;entryX=0;entryY=0.5;entryDx=0;entryDy=0;endArrow=none;startFill=0;fontFamily=Helvetica;movable=0;resizable=0;rotatable=0;deletable=0;editable=0;locked=1;connectable=0;" parent="1" source="yWxOL_djojMHcs1YbIk0-4" target="yWxOL_djojMHcs1YbIk0-33" edge="1">
          <mxGeometry relative="1" as="geometry" />
        </mxCell>
        <mxCell id="yWxOL_djojMHcs1YbIk0-4" value="&lt;span id=&quot;docs-internal-guid-8d97b878-7fff-36c7-eeb0-1722fb72b11d&quot;&gt;&lt;span style=&quot;font-size: 10pt; background-color: transparent; font-variant-numeric: normal; font-variant-east-asian: normal; font-variant-alternates: normal; font-variant-position: normal; font-variant-emoji: normal; vertical-align: baseline; white-space: pre-wrap;&quot;&gt;Inventory clerks&lt;/span&gt;&lt;/span&gt;" style="shape=umlActor;verticalLabelPosition=bottom;verticalAlign=top;html=1;outlineConnect=0;fontFamily=Helvetica;movable=0;resizable=0;rotatable=0;deletable=0;editable=0;locked=1;connectable=0;" parent="1" vertex="1">
          <mxGeometry x="60" y="1250" width="30" height="60" as="geometry" />
        </mxCell>
        <mxCell id="yWxOL_djojMHcs1YbIk0-34" style="rounded=0;orthogonalLoop=1;jettySize=auto;html=1;exitX=0.5;exitY=0.5;exitDx=0;exitDy=0;exitPerimeter=0;entryX=0;entryY=0.5;entryDx=0;entryDy=0;fontFamily=Helvetica;endArrow=none;startFill=0;movable=0;resizable=0;rotatable=0;deletable=0;editable=0;locked=1;connectable=0;" parent="1" source="yWxOL_djojMHcs1YbIk0-5" target="yWxOL_djojMHcs1YbIk0-33" edge="1">
          <mxGeometry relative="1" as="geometry" />
        </mxCell>
        <mxCell id="yWxOL_djojMHcs1YbIk0-5" value="&lt;span id=&quot;docs-internal-guid-8d97b878-7fff-36c7-eeb0-1722fb72b11d&quot;&gt;&lt;span style=&quot;font-size: 10pt; background-color: transparent; font-variant-numeric: normal; font-variant-east-asian: normal; font-variant-alternates: normal; font-variant-position: normal; font-variant-emoji: normal; vertical-align: baseline; white-space: pre-wrap;&quot;&gt;Warehouse manager&lt;/span&gt;&lt;/span&gt;" style="shape=umlActor;verticalLabelPosition=bottom;verticalAlign=top;html=1;outlineConnect=0;fontFamily=Helvetica;movable=0;resizable=0;rotatable=0;deletable=0;editable=0;locked=1;connectable=0;" parent="1" vertex="1">
          <mxGeometry x="60" y="1140" width="30" height="60" as="geometry" />
        </mxCell>
        <mxCell id="yWxOL_djojMHcs1YbIk0-7" value="&lt;span id=&quot;docs-internal-guid-8d97b878-7fff-36c7-eeb0-1722fb72b11d&quot;&gt;&lt;span style=&quot;font-size: 10pt; background-color: transparent; font-variant-numeric: normal; font-variant-east-asian: normal; font-variant-alternates: normal; font-variant-position: normal; font-variant-emoji: normal; vertical-align: baseline; white-space: pre-wrap;&quot;&gt;Secretary&lt;/span&gt;&lt;/span&gt;" style="shape=umlActor;verticalLabelPosition=bottom;verticalAlign=top;html=1;outlineConnect=0;fontFamily=Helvetica;movable=0;resizable=0;rotatable=0;deletable=0;editable=0;locked=1;connectable=0;" parent="1" vertex="1">
          <mxGeometry x="60" y="1550" width="30" height="50" as="geometry" />
        </mxCell>
        <mxCell id="yWxOL_djojMHcs1YbIk0-26" style="rounded=0;orthogonalLoop=1;jettySize=auto;html=1;exitX=0.5;exitY=0.5;exitDx=0;exitDy=0;exitPerimeter=0;entryX=0;entryY=0.5;entryDx=0;entryDy=0;fontFamily=Helvetica;endArrow=none;startFill=0;movable=0;resizable=0;rotatable=0;deletable=0;editable=0;locked=1;connectable=0;" parent="1" source="yWxOL_djojMHcs1YbIk0-8" target="yWxOL_djojMHcs1YbIk0-25" edge="1">
          <mxGeometry relative="1" as="geometry" />
        </mxCell>
        <mxCell id="yWxOL_djojMHcs1YbIk0-40" style="rounded=0;orthogonalLoop=1;jettySize=auto;html=1;exitX=0.5;exitY=0.5;exitDx=0;exitDy=0;exitPerimeter=0;entryX=0;entryY=0.5;entryDx=0;entryDy=0;fontFamily=Helvetica;endArrow=none;startFill=0;movable=0;resizable=0;rotatable=0;deletable=0;editable=0;locked=1;connectable=0;" parent="1" source="yWxOL_djojMHcs1YbIk0-8" target="yWxOL_djojMHcs1YbIk0-41" edge="1">
          <mxGeometry relative="1" as="geometry">
            <mxPoint x="320" y="500" as="targetPoint" />
          </mxGeometry>
        </mxCell>
        <mxCell id="yWxOL_djojMHcs1YbIk0-47" style="rounded=0;orthogonalLoop=1;jettySize=auto;html=1;exitX=0.5;exitY=0.5;exitDx=0;exitDy=0;exitPerimeter=0;entryX=0;entryY=0.5;entryDx=0;entryDy=0;fontFamily=Helvetica;endArrow=none;startFill=0;movable=0;resizable=0;rotatable=0;deletable=0;editable=0;locked=1;connectable=0;" parent="1" source="yWxOL_djojMHcs1YbIk0-8" target="yWxOL_djojMHcs1YbIk0-44" edge="1">
          <mxGeometry relative="1" as="geometry" />
        </mxCell>
        <mxCell id="yWxOL_djojMHcs1YbIk0-8" value="&lt;span id=&quot;docs-internal-guid-a58ee1ed-7fff-1f47-399d-0a0d233d31ba&quot;&gt;&lt;span style=&quot;font-size: 9pt; background-color: transparent; font-variant-numeric: normal; font-variant-east-asian: normal; font-variant-alternates: normal; font-variant-position: normal; font-variant-emoji: normal; vertical-align: baseline; white-space: pre-wrap;&quot;&gt;Buyer&lt;/span&gt;&lt;/span&gt;" style="shape=umlActor;verticalLabelPosition=bottom;verticalAlign=top;html=1;outlineConnect=0;fontFamily=Helvetica;movable=0;resizable=0;rotatable=0;deletable=0;editable=0;locked=1;connectable=0;" parent="1" vertex="1">
          <mxGeometry x="60" y="447" width="30" height="60" as="geometry" />
        </mxCell>
        <mxCell id="yWxOL_djojMHcs1YbIk0-12" value="" style="group;fontFamily=Helvetica;movable=0;resizable=0;rotatable=0;deletable=0;editable=0;locked=1;connectable=0;" parent="1" vertex="1" connectable="0">
          <mxGeometry x="920" y="900" width="140" height="100" as="geometry" />
        </mxCell>
        <mxCell id="6y0UNFh_O2LVKK1WrCtk-1" value="" style="shape=umlActor;verticalLabelPosition=bottom;verticalAlign=top;html=1;outlineConnect=0;container=1;fontFamily=Helvetica;movable=0;resizable=0;rotatable=0;deletable=0;editable=0;locked=1;connectable=0;" parent="yWxOL_djojMHcs1YbIk0-12" vertex="1">
          <mxGeometry x="55" width="30" height="60" as="geometry" />
        </mxCell>
        <mxCell id="yWxOL_djojMHcs1YbIk0-11" value="&lt;span style=&quot;text-wrap-mode: nowrap;&quot;&gt;&amp;lt;&amp;lt;&lt;/span&gt;&lt;span class=&quot;Apple-converted-space&quot; style=&quot;color: light-dark(rgb(0, 0, 0), rgb(255, 255, 255)); background-color: transparent; text-align: start;&quot;&gt;&amp;nbsp;I&lt;/span&gt;&lt;span style=&quot;color: light-dark(rgb(0, 0, 0), rgb(255, 255, 255)); background-color: transparent; text-align: start;&quot;&gt;ntegrated Distribution&lt;br&gt;&lt;/span&gt;&lt;span style=&quot;color: light-dark(rgb(0, 0, 0), rgb(255, 255, 255)); background-color: transparent; text-align: start;&quot;&gt;Management System&lt;/span&gt;&lt;span style=&quot;text-wrap-mode: nowrap;&quot;&gt;&amp;gt;&amp;gt;&lt;/span&gt;" style="text;html=1;align=center;verticalAlign=middle;whiteSpace=wrap;rounded=0;fontFamily=Helvetica;movable=0;resizable=0;rotatable=0;deletable=0;editable=0;locked=1;connectable=0;" parent="yWxOL_djojMHcs1YbIk0-12" vertex="1">
          <mxGeometry y="70" width="140" height="30" as="geometry" />
        </mxCell>
        <mxCell id="yWxOL_djojMHcs1YbIk0-38" style="rounded=0;orthogonalLoop=1;jettySize=auto;html=1;exitX=0.5;exitY=0.5;exitDx=0;exitDy=0;exitPerimeter=0;entryX=0;entryY=0.5;entryDx=0;entryDy=0;fontFamily=Helvetica;endArrow=none;startFill=0;movable=0;resizable=0;rotatable=0;deletable=0;editable=0;locked=1;connectable=0;" parent="1" source="6y0UNFh_O2LVKK1WrCtk-12" target="yWxOL_djojMHcs1YbIk0-36" edge="1">
          <mxGeometry relative="1" as="geometry">
            <mxPoint x="200" y="1010" as="targetPoint" />
          </mxGeometry>
        </mxCell>
        <mxCell id="6y0UNFh_O2LVKK1WrCtk-12" value="&lt;span id=&quot;docs-internal-guid-8d97b878-7fff-36c7-eeb0-1722fb72b11d&quot;&gt;&lt;span style=&quot;font-size: 10pt; background-color: transparent; font-variant-numeric: normal; font-variant-east-asian: normal; font-variant-alternates: normal; font-variant-position: normal; font-variant-emoji: normal; vertical-align: baseline; white-space: pre-wrap;&quot;&gt;Truck drivers&lt;/span&gt;&lt;/span&gt;" style="shape=umlActor;verticalLabelPosition=bottom;verticalAlign=top;html=1;outlineConnect=0;fontFamily=Helvetica;movable=0;resizable=0;rotatable=0;deletable=0;editable=0;locked=1;connectable=0;" parent="1" vertex="1">
          <mxGeometry x="60" y="1020" width="30" height="60" as="geometry" />
        </mxCell>
        <mxCell id="yWxOL_djojMHcs1YbIk0-28" style="rounded=0;orthogonalLoop=1;jettySize=auto;html=1;exitX=0.5;exitY=0.5;exitDx=0;exitDy=0;exitPerimeter=0;entryX=0;entryY=0.5;entryDx=0;entryDy=0;fontFamily=Helvetica;endArrow=none;startFill=0;movable=0;resizable=0;rotatable=0;deletable=0;editable=0;locked=1;connectable=0;" parent="1" source="6y0UNFh_O2LVKK1WrCtk-25" target="yWxOL_djojMHcs1YbIk0-25" edge="1">
          <mxGeometry relative="1" as="geometry" />
        </mxCell>
        <mxCell id="8xiwcoPiNjUW83ZuYsjP-2" style="rounded=0;orthogonalLoop=1;jettySize=auto;html=1;exitX=0.5;exitY=0.5;exitDx=0;exitDy=0;exitPerimeter=0;entryX=0;entryY=0.5;entryDx=0;entryDy=0;endArrow=none;startFill=0;fontFamily=Helvetica;movable=0;resizable=0;rotatable=0;deletable=0;editable=0;locked=1;connectable=0;" parent="1" source="6y0UNFh_O2LVKK1WrCtk-25" target="UpIuRAsAv8k0KQM6b4uX-5" edge="1">
          <mxGeometry relative="1" as="geometry" />
        </mxCell>
        <mxCell id="6y0UNFh_O2LVKK1WrCtk-25" value="&lt;span id=&quot;docs-internal-guid-8d97b878-7fff-36c7-eeb0-1722fb72b11d&quot;&gt;&lt;span style=&quot;font-size: 10pt; background-color: transparent; font-variant-numeric: normal; font-variant-east-asian: normal; font-variant-alternates: normal; font-variant-position: normal; font-variant-emoji: normal; vertical-align: baseline; white-space: pre-wrap;&quot;&gt;General Manager&lt;/span&gt;&lt;/span&gt;" style="shape=umlActor;verticalLabelPosition=bottom;verticalAlign=top;html=1;outlineConnect=0;fontFamily=Helvetica;movable=0;resizable=0;rotatable=0;deletable=0;editable=0;locked=1;connectable=0;" parent="1" vertex="1">
          <mxGeometry x="60" y="661.5" width="30" height="60" as="geometry" />
        </mxCell>
        <mxCell id="6y0UNFh_O2LVKK1WrCtk-44" style="rounded=0;orthogonalLoop=1;jettySize=auto;html=1;exitX=0.5;exitY=0.5;exitDx=0;exitDy=0;exitPerimeter=0;entryX=0;entryY=0.5;entryDx=0;entryDy=0;fontFamily=Helvetica;endArrow=none;startFill=0;movable=0;resizable=0;rotatable=0;deletable=0;editable=0;locked=1;connectable=0;" parent="1" source="6y0UNFh_O2LVKK1WrCtk-26" target="6y0UNFh_O2LVKK1WrCtk-43" edge="1">
          <mxGeometry relative="1" as="geometry" />
        </mxCell>
        <mxCell id="6y0UNFh_O2LVKK1WrCtk-26" value="&lt;span id=&quot;docs-internal-guid-8d97b878-7fff-36c7-eeb0-1722fb72b11d&quot;&gt;&lt;span style=&quot;font-size: 10pt; background-color: transparent; font-variant-numeric: normal; font-variant-east-asian: normal; font-variant-alternates: normal; font-variant-position: normal; font-variant-emoji: normal; vertical-align: baseline; white-space: pre-wrap;&quot;&gt;Bookkeeping manager&lt;/span&gt;&lt;/span&gt;" style="shape=umlActor;verticalLabelPosition=bottom;verticalAlign=top;html=1;outlineConnect=0;fontFamily=Helvetica;movable=0;resizable=0;rotatable=0;deletable=0;editable=0;locked=1;connectable=0;" parent="1" vertex="1">
          <mxGeometry x="60" y="1670" width="30" height="60" as="geometry" />
        </mxCell>
        <mxCell id="yWxOL_djojMHcs1YbIk0-37" style="rounded=0;orthogonalLoop=1;jettySize=auto;html=1;exitX=0.5;exitY=0.5;exitDx=0;exitDy=0;exitPerimeter=0;entryX=0;entryY=0.5;entryDx=0;entryDy=0;fontFamily=Helvetica;endArrow=none;startFill=0;movable=0;resizable=0;rotatable=0;deletable=0;editable=0;locked=1;connectable=0;" parent="1" source="yWxOL_djojMHcs1YbIk0-17" target="yWxOL_djojMHcs1YbIk0-36" edge="1">
          <mxGeometry relative="1" as="geometry" />
        </mxCell>
        <mxCell id="8xiwcoPiNjUW83ZuYsjP-1" style="rounded=0;orthogonalLoop=1;jettySize=auto;html=1;exitX=0.5;exitY=0.5;exitDx=0;exitDy=0;exitPerimeter=0;entryX=0;entryY=0.5;entryDx=0;entryDy=0;endArrow=none;startFill=0;fontFamily=Helvetica;movable=0;resizable=0;rotatable=0;deletable=0;editable=0;locked=1;connectable=0;" parent="1" source="yWxOL_djojMHcs1YbIk0-17" target="UpIuRAsAv8k0KQM6b4uX-5" edge="1">
          <mxGeometry relative="1" as="geometry" />
        </mxCell>
        <mxCell id="lnIWbI7YUrCEZJuBjVtK-2" style="rounded=0;orthogonalLoop=1;jettySize=auto;html=1;exitX=0.5;exitY=0.5;exitDx=0;exitDy=0;exitPerimeter=0;entryX=0;entryY=0.5;entryDx=0;entryDy=0;endArrow=none;startFill=0;fontFamily=Helvetica;movable=0;resizable=0;rotatable=0;deletable=0;editable=0;locked=1;connectable=0;" parent="1" source="yWxOL_djojMHcs1YbIk0-17" target="UpIuRAsAv8k0KQM6b4uX-19" edge="1">
          <mxGeometry relative="1" as="geometry" />
        </mxCell>
        <mxCell id="yWxOL_djojMHcs1YbIk0-17" value="&lt;span id=&quot;docs-internal-guid-8d97b878-7fff-36c7-eeb0-1722fb72b11d&quot;&gt;&lt;span style=&quot;font-size: 10pt; background-color: transparent; font-variant-numeric: normal; font-variant-east-asian: normal; font-variant-alternates: normal; font-variant-position: normal; font-variant-emoji: normal; vertical-align: baseline; white-space: pre-wrap;&quot;&gt;Route drivers&lt;/span&gt;&lt;/span&gt;" style="shape=umlActor;verticalLabelPosition=bottom;verticalAlign=top;html=1;outlineConnect=0;fontFamily=Helvetica;movable=0;resizable=0;rotatable=0;deletable=0;editable=0;locked=1;connectable=0;" parent="1" vertex="1">
          <mxGeometry x="60" y="820" width="30" height="60" as="geometry" />
        </mxCell>
        <mxCell id="6y0UNFh_O2LVKK1WrCtk-45" style="rounded=0;orthogonalLoop=1;jettySize=auto;html=1;exitX=0.5;exitY=0.5;exitDx=0;exitDy=0;exitPerimeter=0;entryX=0;entryY=0.5;entryDx=0;entryDy=0;fontFamily=Helvetica;endArrow=none;startFill=0;movable=0;resizable=0;rotatable=0;deletable=0;editable=0;locked=1;connectable=0;" parent="1" source="yWxOL_djojMHcs1YbIk0-18" target="6y0UNFh_O2LVKK1WrCtk-43" edge="1">
          <mxGeometry relative="1" as="geometry" />
        </mxCell>
        <mxCell id="yWxOL_djojMHcs1YbIk0-18" value="&lt;span id=&quot;docs-internal-guid-8d97b878-7fff-36c7-eeb0-1722fb72b11d&quot;&gt;&lt;span style=&quot;font-size: 10pt; background-color: transparent; font-variant-numeric: normal; font-variant-east-asian: normal; font-variant-alternates: normal; font-variant-position: normal; font-variant-emoji: normal; vertical-align: baseline; white-space: pre-wrap;&quot;&gt;Bookkeeping staff&lt;/span&gt;&lt;/span&gt;" style="shape=umlActor;verticalLabelPosition=bottom;verticalAlign=top;html=1;outlineConnect=0;fontFamily=Helvetica;movable=0;resizable=0;rotatable=0;deletable=0;editable=0;locked=1;connectable=0;" parent="1" vertex="1">
          <mxGeometry x="59.5" y="1790" width="30" height="60" as="geometry" />
        </mxCell>
        <mxCell id="yWxOL_djojMHcs1YbIk0-25" value="&lt;font&gt;Determine stock products and quantities&lt;/font&gt;" style="ellipse;whiteSpace=wrap;html=1;fontFamily=Helvetica;fillColor=#ffcc99;strokeColor=#36393d;movable=0;resizable=0;rotatable=0;deletable=0;editable=0;locked=1;connectable=0;" parent="1" vertex="1">
          <mxGeometry x="264" y="537" width="150" height="80" as="geometry" />
        </mxCell>
        <mxCell id="yWxOL_djojMHcs1YbIk0-33" value="&lt;p class=&quot;p1&quot; style=&quot;margin: 0px; font-variant-numeric: normal; font-variant-east-asian: normal; font-variant-alternates: normal; font-size-adjust: none; font-kerning: auto; font-optical-sizing: auto; font-feature-settings: normal; font-variation-settings: normal; font-variant-position: normal; font-variant-emoji: normal; font-stretch: normal; line-height: normal;&quot;&gt;&lt;span id=&quot;docs-internal-guid-9a9fc2c7-7fff-ec3a-0ed7-c81821c8538c&quot;&gt;&lt;span style=&quot;font-size: 10pt; background-color: transparent; font-variant-numeric: normal; font-variant-east-asian: normal; font-variant-alternates: normal; font-variant-position: normal; font-variant-emoji: normal; vertical-align: baseline; white-space-collapse: preserve;&quot;&gt;Ship and receive merchandise&lt;/span&gt;&lt;/span&gt;&lt;/p&gt;" style="ellipse;whiteSpace=wrap;html=1;align=center;fontFamily=Helvetica;fillColor=#d5e8d4;strokeColor=#82b366;movable=0;resizable=0;rotatable=0;deletable=0;editable=0;locked=1;connectable=0;" parent="1" vertex="1">
          <mxGeometry x="225" y="1126" width="150" height="70" as="geometry" />
        </mxCell>
        <mxCell id="UpIuRAsAv8k0KQM6b4uX-1" value="&lt;span id=&quot;docs-internal-guid-16d97441-7fff-4b6b-f18f-fee4b0ce08a8&quot;&gt;&lt;span style=&quot;font-size: 9pt; background-color: transparent; font-variant-numeric: normal; font-variant-east-asian: normal; font-variant-alternates: normal; font-variant-position: normal; font-variant-emoji: normal; vertical-align: baseline; white-space: pre-wrap;&quot;&gt;Salesman&lt;/span&gt;&lt;/span&gt;" style="shape=umlActor;verticalLabelPosition=bottom;verticalAlign=top;html=1;outlineConnect=0;fontFamily=Helvetica;movable=0;resizable=0;rotatable=0;deletable=0;editable=0;locked=1;connectable=0;" parent="1" vertex="1">
          <mxGeometry x="60" y="200" width="30" height="60" as="geometry" />
        </mxCell>
        <mxCell id="6y0UNFh_O2LVKK1WrCtk-35" value="&lt;font&gt;Enter the order record&lt;/font&gt;" style="ellipse;whiteSpace=wrap;html=1;fillColor=light-dark(#ea6b66, #1f2f1e);strokeColor=light-dark(#874a4a, #ff8888);fontFamily=Helvetica;movable=0;resizable=0;rotatable=0;deletable=0;editable=0;locked=1;connectable=0;" parent="1" vertex="1">
          <mxGeometry x="550" y="171" width="140" height="80" as="geometry" />
        </mxCell>
        <mxCell id="yWxOL_djojMHcs1YbIk0-36" value="&lt;p class=&quot;p1&quot; style=&quot;margin: 0px; font-variant-numeric: normal; font-variant-east-asian: normal; font-variant-alternates: normal; font-size-adjust: none; font-kerning: auto; font-optical-sizing: auto; font-feature-settings: normal; font-variation-settings: normal; font-variant-position: normal; font-variant-emoji: normal; font-stretch: normal; line-height: normal;&quot;&gt;&lt;span id=&quot;docs-internal-guid-acf09ba3-7fff-47e1-b754-64e6082e4978&quot;&gt;&lt;span style=&quot;font-size: 10pt; background-color: transparent; font-variant-numeric: normal; font-variant-east-asian: normal; font-variant-alternates: normal; font-variant-position: normal; font-variant-emoji: normal; vertical-align: baseline; white-space-collapse: preserve;&quot;&gt;Pull merchandise from shelves&lt;/span&gt;&lt;/span&gt;&lt;/p&gt;" style="ellipse;whiteSpace=wrap;html=1;align=center;fontFamily=Helvetica;fillColor=#d5e8d4;strokeColor=#82b366;movable=0;resizable=0;rotatable=0;deletable=0;editable=0;locked=1;connectable=0;" parent="1" vertex="1">
          <mxGeometry x="207.5" y="990" width="150" height="70" as="geometry" />
        </mxCell>
        <mxCell id="6y0UNFh_O2LVKK1WrCtk-36" value="&amp;lt;&amp;lt;include&amp;gt;&amp;gt;" style="edgeStyle=none;html=1;endArrow=open;verticalAlign=bottom;dashed=1;labelBackgroundColor=none;rounded=0;exitX=1.003;exitY=0.399;exitDx=0;exitDy=0;exitPerimeter=0;entryX=0;entryY=0.5;entryDx=0;entryDy=0;fontFamily=Helvetica;movable=0;resizable=0;rotatable=0;deletable=0;editable=0;locked=1;connectable=0;" parent="1" source="yWxOL_djojMHcs1YbIk0-30" target="6y0UNFh_O2LVKK1WrCtk-35" edge="1">
          <mxGeometry width="160" relative="1" as="geometry">
            <mxPoint x="290" y="350" as="sourcePoint" />
            <mxPoint x="450" y="350" as="targetPoint" />
          </mxGeometry>
        </mxCell>
        <mxCell id="yWxOL_djojMHcs1YbIk0-39" value="&amp;lt;&amp;lt;extend&amp;gt;&amp;gt;" style="edgeStyle=none;html=1;startArrow=open;endArrow=none;startSize=12;verticalAlign=bottom;dashed=1;labelBackgroundColor=none;rounded=0;fontFamily=Helvetica;entryX=0.5;entryY=0;entryDx=0;entryDy=0;exitX=0.5;exitY=1;exitDx=0;exitDy=0;movable=0;resizable=0;rotatable=0;deletable=0;editable=0;locked=1;connectable=0;" parent="1" source="yWxOL_djojMHcs1YbIk0-36" target="yWxOL_djojMHcs1YbIk0-33" edge="1">
          <mxGeometry width="160" relative="1" as="geometry">
            <mxPoint x="440" y="1110" as="sourcePoint" />
            <mxPoint x="510" y="1110" as="targetPoint" />
          </mxGeometry>
        </mxCell>
        <mxCell id="yWxOL_djojMHcs1YbIk0-41" value="&lt;font&gt;Generate purchase orders for sales and restocking&lt;/font&gt;" style="ellipse;whiteSpace=wrap;html=1;fontFamily=Helvetica;fillColor=#ffcc99;strokeColor=#36393d;movable=0;resizable=0;rotatable=0;deletable=0;editable=0;locked=1;connectable=0;" parent="1" vertex="1">
          <mxGeometry x="440" y="442" width="140" height="70" as="geometry" />
        </mxCell>
        <mxCell id="yWxOL_djojMHcs1YbIk0-45" style="rounded=0;orthogonalLoop=1;jettySize=auto;html=1;exitX=0.5;exitY=0.5;exitDx=0;exitDy=0;exitPerimeter=0;entryX=0;entryY=0.5;entryDx=0;entryDy=0;fontFamily=Helvetica;endArrow=none;startFill=0;movable=0;resizable=0;rotatable=0;deletable=0;editable=0;locked=1;connectable=0;" parent="1" source="yWxOL_djojMHcs1YbIk0-42" target="yWxOL_djojMHcs1YbIk0-44" edge="1">
          <mxGeometry relative="1" as="geometry" />
        </mxCell>
        <mxCell id="yWxOL_djojMHcs1YbIk0-42" value="&lt;span id=&quot;docs-internal-guid-8d97b878-7fff-36c7-eeb0-1722fb72b11d&quot;&gt;&lt;span style=&quot;font-size: 10pt; background-color: transparent; font-variant-numeric: normal; font-variant-east-asian: normal; font-variant-alternates: normal; font-variant-position: normal; font-variant-emoji: normal; vertical-align: baseline; white-space: pre-wrap;&quot;&gt;Sales staff&lt;/span&gt;&lt;/span&gt;" style="shape=umlActor;verticalLabelPosition=bottom;verticalAlign=top;html=1;outlineConnect=0;fontFamily=Helvetica;movable=0;resizable=0;rotatable=0;deletable=0;editable=0;locked=1;connectable=0;" parent="1" vertex="1">
          <mxGeometry x="60" y="320" width="30" height="60" as="geometry" />
        </mxCell>
        <mxCell id="yWxOL_djojMHcs1YbIk0-44" value="&lt;font&gt;Evaluate product quality&amp;nbsp;&lt;/font&gt;" style="ellipse;whiteSpace=wrap;html=1;fontFamily=Helvetica;fillColor=#ffcccc;strokeColor=#36393d;movable=0;resizable=0;rotatable=0;deletable=0;editable=0;locked=1;connectable=0;" parent="1" vertex="1">
          <mxGeometry x="285" y="320" width="140" height="70" as="geometry" />
        </mxCell>
        <mxCell id="6y0UNFh_O2LVKK1WrCtk-43" value="&lt;font&gt;Handle day-to-day bookkeeping&lt;/font&gt;" style="ellipse;whiteSpace=wrap;html=1;fontFamily=Helvetica;fillColor=#d0cee2;strokeColor=#56517e;movable=0;resizable=0;rotatable=0;deletable=0;editable=0;locked=1;connectable=0;" parent="1" vertex="1">
          <mxGeometry x="247" y="1690" width="140" height="70" as="geometry" />
        </mxCell>
        <mxCell id="yWxOL_djojMHcs1YbIk0-49" value="&lt;font&gt;Record the location of a&amp;nbsp;&lt;/font&gt;&lt;div&gt;&lt;font&gt;new installed machine&lt;/font&gt;&lt;/div&gt;" style="ellipse;whiteSpace=wrap;html=1;fontFamily=Helvetica;fillColor=#b0e3e6;strokeColor=#0e8088;movable=0;resizable=0;rotatable=0;deletable=0;editable=0;locked=1;connectable=0;" parent="1" vertex="1">
          <mxGeometry x="260" y="1570" width="180" height="70" as="geometry" />
        </mxCell>
        <mxCell id="6y0UNFh_O2LVKK1WrCtk-46" style="rounded=0;orthogonalLoop=1;jettySize=auto;html=1;exitX=1;exitY=0.5;exitDx=0;exitDy=0;entryX=0.5;entryY=0;entryDx=0;entryDy=0;entryPerimeter=0;fontFamily=Helvetica;endArrow=none;startFill=0;edgeStyle=orthogonalEdgeStyle;movable=0;resizable=0;rotatable=0;deletable=0;editable=0;locked=1;connectable=0;" parent="1" source="6y0UNFh_O2LVKK1WrCtk-35" target="6y0UNFh_O2LVKK1WrCtk-1" edge="1">
          <mxGeometry relative="1" as="geometry" />
        </mxCell>
        <mxCell id="6y0UNFh_O2LVKK1WrCtk-68" style="rounded=0;orthogonalLoop=1;jettySize=auto;html=1;exitX=0.5;exitY=0.5;exitDx=0;exitDy=0;exitPerimeter=0;endArrow=none;startFill=0;fontFamily=Helvetica;movable=0;resizable=0;rotatable=0;deletable=0;editable=0;locked=1;connectable=0;" parent="1" source="6y0UNFh_O2LVKK1WrCtk-50" target="6y0UNFh_O2LVKK1WrCtk-65" edge="1">
          <mxGeometry relative="1" as="geometry" />
        </mxCell>
        <mxCell id="6y0UNFh_O2LVKK1WrCtk-50" value="&lt;span style=&quot;font-size: 13.3333px; white-space: pre-wrap;&quot;&gt;Kippy Weil&lt;/span&gt;" style="shape=umlActor;verticalLabelPosition=bottom;verticalAlign=top;html=1;outlineConnect=0;fontFamily=Helvetica;movable=0;resizable=0;rotatable=0;deletable=0;editable=0;locked=1;connectable=0;" parent="1" vertex="1">
          <mxGeometry x="89.5" y="1950" width="30" height="60" as="geometry" />
        </mxCell>
        <mxCell id="yWxOL_djojMHcs1YbIk0-56" style="edgeStyle=orthogonalEdgeStyle;rounded=0;orthogonalLoop=1;jettySize=auto;html=1;exitX=0.5;exitY=0;exitDx=0;exitDy=0;exitPerimeter=0;fontFamily=Helvetica;movable=0;resizable=0;rotatable=0;deletable=0;editable=0;locked=1;connectable=0;" parent="1" source="yWxOL_djojMHcs1YbIk0-50" target="yWxOL_djojMHcs1YbIk0-18" edge="1">
          <mxGeometry relative="1" as="geometry">
            <Array as="points">
              <mxPoint x="34.5" y="1920" />
              <mxPoint x="74.5" y="1920" />
            </Array>
            <mxPoint x="74.5" y="1940" as="targetPoint" />
          </mxGeometry>
        </mxCell>
        <mxCell id="6y0UNFh_O2LVKK1WrCtk-67" style="rounded=0;orthogonalLoop=1;jettySize=auto;html=1;exitX=0.5;exitY=0.5;exitDx=0;exitDy=0;exitPerimeter=0;entryX=0;entryY=0.5;entryDx=0;entryDy=0;endArrow=none;startFill=0;fontFamily=Helvetica;movable=0;resizable=0;rotatable=0;deletable=0;editable=0;locked=1;connectable=0;" parent="1" source="yWxOL_djojMHcs1YbIk0-50" target="6y0UNFh_O2LVKK1WrCtk-66" edge="1">
          <mxGeometry relative="1" as="geometry" />
        </mxCell>
        <mxCell id="yWxOL_djojMHcs1YbIk0-50" value="&lt;span id=&quot;docs-internal-guid-8d97b878-7fff-36c7-eeb0-1722fb72b11d&quot;&gt;&lt;span style=&quot;font-size: 10pt; background-color: transparent; font-variant-numeric: normal; font-variant-east-asian: normal; font-variant-alternates: normal; font-variant-position: normal; font-variant-emoji: normal; vertical-align: baseline; white-space: pre-wrap;&quot;&gt;Computer operator&lt;/span&gt;&lt;/span&gt;" style="shape=umlActor;verticalLabelPosition=bottom;verticalAlign=top;html=1;outlineConnect=0;fontFamily=Helvetica;movable=0;resizable=0;rotatable=0;deletable=0;editable=0;locked=1;connectable=0;" parent="1" vertex="1">
          <mxGeometry x="19.5" y="2040" width="30" height="60" as="geometry" />
        </mxCell>
        <mxCell id="yWxOL_djojMHcs1YbIk0-55" style="edgeStyle=orthogonalEdgeStyle;rounded=0;orthogonalLoop=1;jettySize=auto;html=1;exitX=0.5;exitY=0;exitDx=0;exitDy=0;exitPerimeter=0;fontFamily=Helvetica;movable=0;resizable=0;rotatable=0;deletable=0;editable=0;locked=1;connectable=0;" parent="1" source="6y0UNFh_O2LVKK1WrCtk-50" target="yWxOL_djojMHcs1YbIk0-18" edge="1">
          <mxGeometry relative="1" as="geometry">
            <mxPoint x="44.50000000000023" y="2010" as="sourcePoint" />
            <mxPoint x="74.5" y="1900" as="targetPoint" />
            <Array as="points">
              <mxPoint x="104.5" y="1920" />
              <mxPoint x="74.5" y="1920" />
            </Array>
          </mxGeometry>
        </mxCell>
        <mxCell id="UpIuRAsAv8k0KQM6b4uX-5" value="&lt;b style=&quot;font-style: normal; font-variant-caps: normal; letter-spacing: normal; text-align: start; text-indent: 0px; text-transform: none; white-space: normal; word-spacing: 0px; -webkit-text-stroke-width: 0px; text-decoration: none; caret-color: rgb(0, 0, 0); color: rgb(0, 0, 0); font-weight: normal;&quot; id=&quot;docs-internal-guid-32a659cb-7fff-415b-46f4-145acd59982e&quot;&gt;&lt;span style=&quot;font-size: 10pt; color: rgb(0, 0, 0); background-color: transparent; font-weight: 400; font-style: normal; font-variant-ligatures: normal; font-variant-caps: normal; font-variant-alternates: normal; font-variant-numeric: normal; font-variant-east-asian: normal; font-variant-position: normal; text-decoration: none; vertical-align: baseline; white-space: pre-wrap;&quot;&gt;Seek additional vending machine locations&lt;/span&gt;&lt;/b&gt;" style="ellipse;whiteSpace=wrap;html=1;fontFamily=Helvetica;fillColor=#ffff88;strokeColor=#36393d;movable=0;resizable=0;rotatable=0;deletable=0;editable=0;locked=1;connectable=0;" parent="1" vertex="1">
          <mxGeometry x="341" y="617" width="159" height="78.5" as="geometry" />
        </mxCell>
        <mxCell id="6y0UNFh_O2LVKK1WrCtk-65" value="Handle all vending-related expenses" style="ellipse;whiteSpace=wrap;html=1;fillColor=#d0cee2;strokeColor=#56517e;fontFamily=Helvetica;movable=0;resizable=0;rotatable=0;deletable=0;editable=0;locked=1;connectable=0;" parent="1" vertex="1">
          <mxGeometry x="249.5" y="1940" width="140" height="80" as="geometry" />
        </mxCell>
        <mxCell id="6y0UNFh_O2LVKK1WrCtk-66" value="Handle computer operation" style="ellipse;whiteSpace=wrap;html=1;fillColor=#d0cee2;strokeColor=#56517e;fontFamily=Helvetica;movable=0;resizable=0;rotatable=0;deletable=0;editable=0;locked=1;connectable=0;" parent="1" vertex="1">
          <mxGeometry x="252" y="2030" width="135" height="80" as="geometry" />
        </mxCell>
        <mxCell id="UpIuRAsAv8k0KQM6b4uX-6" value="&lt;b style=&quot;font-style: normal; font-variant-caps: normal; letter-spacing: normal; text-align: start; text-indent: 0px; text-transform: none; white-space: normal; word-spacing: 0px; -webkit-text-stroke-width: 0px; text-decoration: none; caret-color: rgb(0, 0, 0); color: rgb(0, 0, 0); font-weight: normal;&quot; id=&quot;docs-internal-guid-5e451ebb-7fff-aa71-9ea9-499701272533&quot;&gt;&lt;span style=&quot;font-size: 10pt; color: rgb(0, 0, 0); background-color: transparent; font-weight: 400; font-style: normal; font-variant-ligatures: normal; font-variant-caps: normal; font-variant-alternates: normal; font-variant-numeric: normal; font-variant-east-asian: normal; font-variant-position: normal; text-decoration: none; vertical-align: baseline; white-space: pre-wrap;&quot;&gt;Restock vending machines and collect money&lt;/span&gt;&lt;/b&gt;" style="ellipse;whiteSpace=wrap;html=1;fontFamily=Helvetica;fillColor=#cdeb8b;strokeColor=#36393d;movable=0;resizable=0;rotatable=0;deletable=0;editable=0;locked=1;connectable=0;" parent="1" vertex="1">
          <mxGeometry x="570" y="760" width="160" height="80" as="geometry" />
        </mxCell>
        <mxCell id="UpIuRAsAv8k0KQM6b4uX-7" value="&lt;div style=&quot;&quot;&gt;&lt;span style=&quot;background-color: transparent; font-size: 13.3333px; white-space-collapse: preserve;&quot;&gt;Determine daily stock requirements for products&lt;/span&gt;&lt;/div&gt;" style="ellipse;whiteSpace=wrap;html=1;fontFamily=Helvetica;align=center;fillColor=#cdeb8b;strokeColor=#36393d;movable=0;resizable=0;rotatable=0;deletable=0;editable=0;locked=1;connectable=0;" parent="1" vertex="1">
          <mxGeometry x="400" y="840" width="180" height="90" as="geometry" />
        </mxCell>
        <mxCell id="UpIuRAsAv8k0KQM6b4uX-10" style="rounded=0;orthogonalLoop=1;jettySize=auto;html=1;exitX=0.5;exitY=0.5;exitDx=0;exitDy=0;exitPerimeter=0;endArrow=none;startFill=0;fontFamily=Helvetica;movable=0;resizable=0;rotatable=0;deletable=0;editable=0;locked=1;connectable=0;" parent="1" source="yWxOL_djojMHcs1YbIk0-17" target="UpIuRAsAv8k0KQM6b4uX-6" edge="1">
          <mxGeometry relative="1" as="geometry">
            <mxPoint x="105" y="880" as="sourcePoint" />
            <mxPoint x="340" y="810" as="targetPoint" />
          </mxGeometry>
        </mxCell>
        <mxCell id="UpIuRAsAv8k0KQM6b4uX-11" style="rounded=0;orthogonalLoop=1;jettySize=auto;html=1;exitX=0.5;exitY=0.5;exitDx=0;exitDy=0;exitPerimeter=0;entryX=0;entryY=0.5;entryDx=0;entryDy=0;endArrow=none;startFill=0;fontFamily=Helvetica;movable=0;resizable=0;rotatable=0;deletable=0;editable=0;locked=1;connectable=0;" parent="1" source="yWxOL_djojMHcs1YbIk0-17" target="UpIuRAsAv8k0KQM6b4uX-7" edge="1">
          <mxGeometry relative="1" as="geometry">
            <mxPoint x="85" y="870" as="sourcePoint" />
            <mxPoint x="321" y="885" as="targetPoint" />
          </mxGeometry>
        </mxCell>
        <mxCell id="6y0UNFh_O2LVKK1WrCtk-69" value="Generate Integrated distribution management package" style="ellipse;whiteSpace=wrap;html=1;fillColor=#d0cee2;fontFamily=Helvetica;strokeColor=#56517e;movable=0;resizable=0;rotatable=0;deletable=0;editable=0;locked=1;connectable=0;" parent="1" vertex="1">
          <mxGeometry x="510.5" y="2124" width="170" height="90" as="geometry" />
        </mxCell>
        <mxCell id="6y0UNFh_O2LVKK1WrCtk-71" style="rounded=0;orthogonalLoop=1;jettySize=auto;html=1;exitX=0.5;exitY=0.5;exitDx=0;exitDy=0;exitPerimeter=0;entryX=1;entryY=0.5;entryDx=0;entryDy=0;fontFamily=Helvetica;endArrow=none;startFill=0;edgeStyle=orthogonalEdgeStyle;movable=0;resizable=0;rotatable=0;deletable=0;editable=0;locked=1;connectable=0;" parent="1" source="6y0UNFh_O2LVKK1WrCtk-1" target="6y0UNFh_O2LVKK1WrCtk-69" edge="1">
          <mxGeometry relative="1" as="geometry">
            <mxPoint x="898" y="1009.9999999999998" as="sourcePoint" />
            <mxPoint x="549.9999999999998" y="2055" as="targetPoint" />
            <Array as="points">
              <mxPoint x="990" y="2169" />
            </Array>
          </mxGeometry>
        </mxCell>
        <mxCell id="6y0UNFh_O2LVKK1WrCtk-72" style="rounded=0;orthogonalLoop=1;jettySize=auto;html=1;exitX=1;exitY=0.5;exitDx=0;exitDy=0;entryX=0.5;entryY=0.5;entryDx=0;entryDy=0;entryPerimeter=0;endArrow=none;startFill=0;fontFamily=Helvetica;edgeStyle=orthogonalEdgeStyle;movable=0;resizable=0;rotatable=0;deletable=0;editable=0;locked=1;connectable=0;" parent="1" source="6y0UNFh_O2LVKK1WrCtk-43" target="6y0UNFh_O2LVKK1WrCtk-1" edge="1">
          <mxGeometry relative="1" as="geometry">
            <Array as="points">
              <mxPoint x="930" y="1725" />
              <mxPoint x="930" y="930" />
            </Array>
          </mxGeometry>
        </mxCell>
        <mxCell id="6y0UNFh_O2LVKK1WrCtk-73" style="rounded=0;orthogonalLoop=1;jettySize=auto;html=1;exitX=1;exitY=0.5;exitDx=0;exitDy=0;entryX=0.5;entryY=0.5;entryDx=0;entryDy=0;entryPerimeter=0;endArrow=none;startFill=0;fontFamily=Helvetica;edgeStyle=orthogonalEdgeStyle;movable=0;resizable=0;rotatable=0;deletable=0;editable=0;locked=1;connectable=0;" parent="1" source="6y0UNFh_O2LVKK1WrCtk-65" target="6y0UNFh_O2LVKK1WrCtk-1" edge="1">
          <mxGeometry relative="1" as="geometry">
            <Array as="points">
              <mxPoint x="960" y="1980" />
              <mxPoint x="960" y="930" />
            </Array>
          </mxGeometry>
        </mxCell>
        <mxCell id="6y0UNFh_O2LVKK1WrCtk-75" value="&amp;lt;&amp;lt;extend&amp;gt;&amp;gt;" style="edgeStyle=none;html=1;startArrow=open;endArrow=none;startSize=12;verticalAlign=bottom;dashed=1;labelBackgroundColor=none;rounded=0;entryX=0;entryY=0.5;entryDx=0;entryDy=0;exitX=1;exitY=0.5;exitDx=0;exitDy=0;fontFamily=Helvetica;movable=0;resizable=0;rotatable=0;deletable=0;editable=0;locked=1;connectable=0;" parent="1" source="6y0UNFh_O2LVKK1WrCtk-76" target="6y0UNFh_O2LVKK1WrCtk-69" edge="1">
          <mxGeometry width="160" relative="1" as="geometry">
            <mxPoint x="469.5" y="2260" as="sourcePoint" />
            <mxPoint x="629.5" y="2260" as="targetPoint" />
          </mxGeometry>
        </mxCell>
        <mxCell id="6y0UNFh_O2LVKK1WrCtk-76" value="Generate Other Report" style="ellipse;whiteSpace=wrap;html=1;fillColor=#d0cee2;fontFamily=Helvetica;strokeColor=#56517e;movable=0;resizable=0;rotatable=0;deletable=0;editable=0;locked=1;connectable=0;" parent="1" vertex="1">
          <mxGeometry x="244.5" y="2134" width="140" height="70" as="geometry" />
        </mxCell>
        <mxCell id="UpIuRAsAv8k0KQM6b4uX-12" value="&lt;b style=&quot;font-style: normal; font-variant-caps: normal; letter-spacing: normal; text-align: start; text-indent: 0px; text-transform: none; white-space: normal; word-spacing: 0px; -webkit-text-stroke-width: 0px; text-decoration: none; caret-color: rgb(0, 0, 0); color: rgb(0, 0, 0); font-weight: normal;&quot; id=&quot;docs-internal-guid-b3c3eb54-7fff-ba98-5e95-1609cec378e6&quot;&gt;&lt;span style=&quot;font-size: 10pt; color: rgb(0, 0, 0); background-color: transparent; font-weight: 400; font-style: normal; font-variant-ligatures: normal; font-variant-caps: normal; font-variant-alternates: normal; font-variant-numeric: normal; font-variant-east-asian: normal; font-variant-position: normal; text-decoration: none; vertical-align: baseline; white-space: pre-wrap;&quot;&gt;Create a order form to record the inventory depletion&lt;/span&gt;&lt;/b&gt;" style="ellipse;whiteSpace=wrap;html=1;align=center;fontFamily=Helvetica;fillColor=#dae8fc;strokeColor=#6c8ebf;movable=0;resizable=0;rotatable=0;deletable=0;editable=0;locked=1;connectable=0;" parent="1" vertex="1">
          <mxGeometry x="290" y="1210" width="160" height="80" as="geometry" />
        </mxCell>
        <mxCell id="UpIuRAsAv8k0KQM6b4uX-13" style="rounded=0;orthogonalLoop=1;jettySize=auto;html=1;exitX=0.5;exitY=0.5;exitDx=0;exitDy=0;exitPerimeter=0;entryX=0;entryY=0.5;entryDx=0;entryDy=0;endArrow=none;startFill=0;fontFamily=Helvetica;movable=0;resizable=0;rotatable=0;deletable=0;editable=0;locked=1;connectable=0;" parent="1" source="yWxOL_djojMHcs1YbIk0-4" target="UpIuRAsAv8k0KQM6b4uX-12" edge="1">
          <mxGeometry relative="1" as="geometry">
            <mxPoint x="85" y="1290" as="sourcePoint" />
            <mxPoint x="380" y="1245" as="targetPoint" />
          </mxGeometry>
        </mxCell>
        <mxCell id="UpIuRAsAv8k0KQM6b4uX-14" value="&lt;b id=&quot;docs-internal-guid-1ce834e2-7fff-48af-f392-65001c2002f3&quot; style=&quot;font-style: normal; font-variant-caps: normal; letter-spacing: normal; text-align: start; text-indent: 0px; text-transform: none; white-space: normal; word-spacing: 0px; -webkit-text-stroke-width: 0px; text-decoration: none; caret-color: rgb(0, 0, 0); color: rgb(0, 0, 0); font-weight: normal;&quot;&gt;&lt;span style=&quot;font-size: 10pt; color: rgb(0, 0, 0); background-color: transparent; font-weight: 400; font-style: normal; font-variant-ligatures: normal; font-variant-caps: normal; font-variant-alternates: normal; font-variant-numeric: normal; font-variant-east-asian: normal; font-variant-position: normal; text-decoration: none; vertical-align: baseline; white-space: pre-wrap;&quot;&gt;R&lt;/span&gt;&lt;/b&gt;&lt;span style=&quot;text-align: start; caret-color: rgb(0, 0, 0); color: rgb(0, 0, 0);&quot;&gt;&lt;span style=&quot;font-size: 10pt; font-variant-ligatures: normal; font-variant-alternates: normal; font-variant-numeric: normal; font-variant-east-asian: normal; font-variant-position: normal; vertical-align: baseline; white-space: pre-wrap; color: rgb(0, 0, 0);&quot;&gt;ecords inventory depletion&lt;/span&gt;&lt;/span&gt;" style="ellipse;whiteSpace=wrap;html=1;fontFamily=Helvetica;align=center;fillColor=#d0cee2;strokeColor=#56517e;movable=0;resizable=0;rotatable=0;deletable=0;editable=0;locked=1;connectable=0;" parent="1" vertex="1">
          <mxGeometry x="259.5" y="1780" width="120" height="60" as="geometry" />
        </mxCell>
        <mxCell id="UpIuRAsAv8k0KQM6b4uX-17" value="&amp;lt;&amp;lt;extend&amp;gt;&amp;gt;" style="rounded=0;orthogonalLoop=1;jettySize=auto;html=1;exitX=0.5;exitY=0;exitDx=0;exitDy=0;entryX=0.5;entryY=1;entryDx=0;entryDy=0;fontFamily=Helvetica;endArrow=none;startFill=1;dashed=1;startArrow=classic;movable=0;resizable=0;rotatable=0;deletable=0;editable=0;locked=1;connectable=0;" parent="1" source="6y0UNFh_O2LVKK1WrCtk-65" target="UpIuRAsAv8k0KQM6b4uX-14" edge="1">
          <mxGeometry x="0.0377" y="-7" relative="1" as="geometry">
            <mxPoint x="359.5" y="1840" as="sourcePoint" />
            <mxPoint x="514.5" y="1735" as="targetPoint" />
            <mxPoint as="offset" />
          </mxGeometry>
        </mxCell>
        <mxCell id="UpIuRAsAv8k0KQM6b4uX-18" value="&lt;div style=&quot;&quot;&gt;&lt;span style=&quot;text-align: start;&quot; id=&quot;docs-internal-guid-cf98c494-7fff-6c7a-f5ac-4d1e6ce48f7c&quot;&gt;&lt;span style=&quot;font-size: 10pt; font-variant-ligatures: normal; font-variant-alternates: normal; font-variant-numeric: normal; font-variant-east-asian: normal; font-variant-position: normal; vertical-align: baseline; white-space: pre-wrap;&quot;&gt;Perform minor repairs&amp;nbsp;&lt;/span&gt;&lt;/span&gt;&lt;span style=&quot;font-size: 10pt; white-space: pre-wrap; text-align: start;&quot;&gt;for an&amp;nbsp;&lt;/span&gt;&lt;/div&gt;&lt;div style=&quot;&quot;&gt;&lt;span style=&quot;text-align: start;&quot;&gt;&lt;span style=&quot;font-size: 10pt; font-variant-ligatures: normal; font-variant-alternates: normal; font-variant-numeric: normal; font-variant-east-asian: normal; font-variant-position: normal; vertical-align: baseline; white-space: pre-wrap;&quot;&gt;out-of-service machine &lt;/span&gt;&lt;/span&gt;&lt;br&gt;&lt;/div&gt;" style="ellipse;whiteSpace=wrap;html=1;fontFamily=Helvetica;align=center;fillColor=#cdeb8b;strokeColor=#36393d;movable=0;resizable=0;rotatable=0;deletable=0;editable=0;locked=1;connectable=0;" parent="1" vertex="1">
          <mxGeometry x="520" y="940" width="190" height="90" as="geometry" />
        </mxCell>
        <mxCell id="UpIuRAsAv8k0KQM6b4uX-19" value="&lt;b id=&quot;docs-internal-guid-d2856b3a-7fff-cc58-a23c-3f457dca3ddc&quot; style=&quot;font-style: normal; font-variant-caps: normal; letter-spacing: normal; text-align: start; text-indent: 0px; text-transform: none; white-space: normal; word-spacing: 0px; -webkit-text-stroke-width: 0px; text-decoration: none; caret-color: rgb(0, 0, 0); color: rgb(0, 0, 0); font-weight: normal;&quot;&gt;&lt;span style=&quot;font-size: 10pt; color: rgb(0, 0, 0); background-color: transparent; font-weight: 400; font-style: normal; font-variant-ligatures: normal; font-variant-caps: normal; font-variant-alternates: normal; font-variant-numeric: normal; font-variant-east-asian: normal; font-variant-position: normal; text-decoration: none; vertical-align: baseline; white-space: pre-wrap;&quot;&gt;Report issues of an &lt;/span&gt;&lt;/b&gt;&lt;span style=&quot;font-size: 13.3333px; text-align: start; white-space: pre-wrap;&quot;&gt;out-of-service machine&lt;/span&gt;" style="ellipse;whiteSpace=wrap;html=1;fontFamily=Helvetica;align=center;fillColor=#b0e3e6;strokeColor=#0e8088;movable=0;resizable=0;rotatable=0;deletable=0;editable=0;locked=1;connectable=0;" parent="1" vertex="1">
          <mxGeometry x="590" y="1060" width="170" height="90" as="geometry" />
        </mxCell>
        <mxCell id="6y0UNFh_O2LVKK1WrCtk-77" style="rounded=0;orthogonalLoop=1;jettySize=auto;html=1;exitX=0.5;exitY=0.5;exitDx=0;exitDy=0;exitPerimeter=0;entryX=0;entryY=0.5;entryDx=0;entryDy=0;endArrow=none;startFill=0;fontFamily=Helvetica;movable=0;resizable=0;rotatable=0;deletable=0;editable=0;locked=1;connectable=0;" parent="1" source="yWxOL_djojMHcs1YbIk0-7" target="yWxOL_djojMHcs1YbIk0-49" edge="1">
          <mxGeometry relative="1" as="geometry">
            <mxPoint x="90" y="1434" as="sourcePoint" />
            <mxPoint x="296" y="1390" as="targetPoint" />
          </mxGeometry>
        </mxCell>
        <mxCell id="UpIuRAsAv8k0KQM6b4uX-20" value="&lt;b id=&quot;docs-internal-guid-32fcb11b-7fff-b375-6a9e-8c0a5c5a669a&quot; style=&quot;font-style: normal; font-variant-caps: normal; letter-spacing: normal; text-align: start; text-indent: 0px; text-transform: none; white-space: normal; word-spacing: 0px; -webkit-text-stroke-width: 0px; text-decoration: none; caret-color: rgb(0, 0, 0); color: rgb(0, 0, 0); font-weight: normal;&quot;&gt;&lt;span style=&quot;font-size: 10pt; color: rgb(0, 0, 0); background-color: transparent; font-weight: 400; font-style: normal; font-variant-ligatures: normal; font-variant-caps: normal; font-variant-alternates: normal; font-variant-numeric: normal; font-variant-east-asian: normal; font-variant-position: normal; text-decoration: none; vertical-align: baseline; white-space: pre-wrap;&quot;&gt;Contacts a local consulting company for machine repairs&lt;/span&gt;&lt;/b&gt;" style="ellipse;whiteSpace=wrap;html=1;fontFamily=Helvetica;fillColor=#b0e3e6;strokeColor=#0e8088;movable=0;resizable=0;rotatable=0;deletable=0;editable=0;locked=1;connectable=0;" parent="1" vertex="1">
          <mxGeometry x="285" y="1460" width="215" height="80" as="geometry" />
        </mxCell>
        <mxCell id="UpIuRAsAv8k0KQM6b4uX-21" style="rounded=0;orthogonalLoop=1;jettySize=auto;html=1;exitX=0.5;exitY=0.5;exitDx=0;exitDy=0;exitPerimeter=0;entryX=0;entryY=0.5;entryDx=0;entryDy=0;endArrow=none;startFill=0;fontFamily=Helvetica;movable=0;resizable=0;rotatable=0;deletable=0;editable=0;locked=1;connectable=0;" parent="1" source="yWxOL_djojMHcs1YbIk0-7" target="UpIuRAsAv8k0KQM6b4uX-20" edge="1">
          <mxGeometry relative="1" as="geometry">
            <mxPoint x="100" y="1370" as="sourcePoint" />
            <mxPoint x="315" y="1395" as="targetPoint" />
          </mxGeometry>
        </mxCell>
        <mxCell id="UpIuRAsAv8k0KQM6b4uX-22" style="rounded=0;orthogonalLoop=1;jettySize=auto;html=1;exitX=0.5;exitY=0.5;exitDx=0;exitDy=0;exitPerimeter=0;entryX=0;entryY=0.5;entryDx=0;entryDy=0;endArrow=none;startFill=0;fontFamily=Helvetica;movable=0;resizable=0;rotatable=0;deletable=0;editable=0;locked=1;connectable=0;" parent="1" source="yWxOL_djojMHcs1YbIk0-17" target="UpIuRAsAv8k0KQM6b4uX-18" edge="1">
          <mxGeometry relative="1" as="geometry">
            <mxPoint x="95" y="860" as="sourcePoint" />
            <mxPoint x="521" y="1110" as="targetPoint" />
          </mxGeometry>
        </mxCell>
        <mxCell id="5Uls5VufoHKx8Cr3doJX-1" value="&amp;lt;&amp;lt;extend&amp;gt;&amp;gt;" style="html=1;startArrow=open;endArrow=none;startSize=12;verticalAlign=bottom;dashed=1;labelBackgroundColor=none;rounded=0;fontFamily=Helvetica;entryX=0.5;entryY=1;entryDx=0;entryDy=0;exitX=0.5;exitY=0.5;exitDx=0;exitDy=0;exitPerimeter=0;movable=0;resizable=0;rotatable=0;deletable=0;editable=0;locked=1;connectable=0;" parent="1" source="yWxOL_djojMHcs1YbIk0-7" target="UpIuRAsAv8k0KQM6b4uX-19" edge="1">
          <mxGeometry width="160" relative="1" as="geometry">
            <mxPoint x="80" y="1580" as="sourcePoint" />
            <mxPoint x="690" y="1310" as="targetPoint" />
          </mxGeometry>
        </mxCell>
        <mxCell id="5Uls5VufoHKx8Cr3doJX-4" value="&lt;font&gt;Identify products to add to inventory&lt;/font&gt;" style="ellipse;whiteSpace=wrap;html=1;fontFamily=Helvetica;fillColor=#ffcccc;strokeColor=#36393d;movable=0;resizable=0;rotatable=0;deletable=0;editable=0;locked=1;connectable=0;" parent="1" vertex="1">
          <mxGeometry x="510" y="330" width="140" height="70" as="geometry" />
        </mxCell>
        <mxCell id="5Uls5VufoHKx8Cr3doJX-6" style="edgeStyle=orthogonalEdgeStyle;rounded=0;orthogonalLoop=1;jettySize=auto;html=1;exitX=1;exitY=0.5;exitDx=0;exitDy=0;endArrow=none;startFill=0;movable=0;resizable=0;rotatable=0;deletable=0;editable=0;locked=1;connectable=0;" parent="1" source="5Uls5VufoHKx8Cr3doJX-4" edge="1">
          <mxGeometry relative="1" as="geometry">
            <mxPoint x="990" y="930" as="targetPoint" />
            <Array as="points">
              <mxPoint x="910" y="365" />
              <mxPoint x="910" y="930" />
            </Array>
          </mxGeometry>
        </mxCell>
        <mxCell id="5Uls5VufoHKx8Cr3doJX-7" value="&amp;lt;&amp;lt;include&amp;gt;&amp;gt;" style="edgeStyle=none;html=1;endArrow=open;verticalAlign=bottom;dashed=1;labelBackgroundColor=none;rounded=0;exitX=1;exitY=0.5;exitDx=0;exitDy=0;entryX=0;entryY=0.5;entryDx=0;entryDy=0;fontFamily=Helvetica;movable=0;resizable=0;rotatable=0;deletable=0;editable=0;locked=1;connectable=0;" parent="1" source="yWxOL_djojMHcs1YbIk0-44" target="5Uls5VufoHKx8Cr3doJX-4" edge="1">
          <mxGeometry width="160" relative="1" as="geometry">
            <mxPoint x="390" y="258" as="sourcePoint" />
            <mxPoint x="540" y="260" as="targetPoint" />
          </mxGeometry>
        </mxCell>
        <mxCell id="5Uls5VufoHKx8Cr3doJX-9" value="&amp;lt;&amp;lt;include&amp;gt;&amp;gt;" style="edgeStyle=none;html=1;endArrow=open;verticalAlign=bottom;dashed=1;labelBackgroundColor=none;rounded=0;exitX=1;exitY=0.5;exitDx=0;exitDy=0;entryX=0.5;entryY=1;entryDx=0;entryDy=0;fontFamily=Helvetica;movable=0;resizable=0;rotatable=0;deletable=0;editable=0;locked=1;connectable=0;" parent="1" source="yWxOL_djojMHcs1YbIk0-25" target="yWxOL_djojMHcs1YbIk0-41" edge="1">
          <mxGeometry width="160" relative="1" as="geometry">
            <mxPoint x="427.5" y="547" as="sourcePoint" />
            <mxPoint x="512.5" y="557" as="targetPoint" />
          </mxGeometry>
        </mxCell>
        <mxCell id="FtRXyBm46m3HxFXF1wEg-1" value="&lt;b style=&quot;font-style: normal; font-variant-caps: normal; letter-spacing: normal; text-align: start; text-indent: 0px; text-transform: none; white-space: normal; word-spacing: 0px; -webkit-text-stroke-width: 0px; text-decoration: none; caret-color: rgb(0, 0, 0); color: rgb(0, 0, 0); font-weight: normal;&quot; id=&quot;docs-internal-guid-b3c3eb54-7fff-ba98-5e95-1609cec378e6&quot;&gt;&lt;span style=&quot;font-size: 10pt; color: rgb(0, 0, 0); background-color: transparent; font-weight: 400; font-style: normal; font-variant-ligatures: normal; font-variant-caps: normal; font-variant-alternates: normal; font-variant-numeric: normal; font-variant-east-asian: normal; font-variant-position: normal; text-decoration: none; vertical-align: baseline; white-space: pre-wrap;&quot;&gt;Scan all merchandise coming into and going out of the warehouse&lt;/span&gt;&lt;/b&gt;" style="ellipse;whiteSpace=wrap;html=1;align=center;fontFamily=Helvetica;fillColor=#dae8fc;strokeColor=#6c8ebf;movable=0;resizable=0;rotatable=0;deletable=0;editable=0;locked=1;connectable=0;" parent="1" vertex="1">
          <mxGeometry x="181" y="1300" width="160" height="80" as="geometry" />
        </mxCell>
        <mxCell id="FtRXyBm46m3HxFXF1wEg-2" style="rounded=0;orthogonalLoop=1;jettySize=auto;html=1;entryX=0;entryY=0.5;entryDx=0;entryDy=0;endArrow=none;startFill=0;fontFamily=Helvetica;movable=0;resizable=0;rotatable=0;deletable=0;editable=0;locked=1;connectable=0;" parent="1" target="FtRXyBm46m3HxFXF1wEg-1" edge="1">
          <mxGeometry relative="1" as="geometry">
            <mxPoint x="70" y="1280" as="sourcePoint" />
            <mxPoint x="285" y="1280" as="targetPoint" />
          </mxGeometry>
        </mxCell>
        <mxCell id="rBD2oZokFc3KJVkXr7w9-2" style="rounded=0;orthogonalLoop=1;jettySize=auto;html=1;endArrow=none;startFill=0;movable=0;resizable=0;rotatable=0;deletable=0;editable=0;locked=1;connectable=0;" parent="1" source="rBD2oZokFc3KJVkXr7w9-1" edge="1">
          <mxGeometry relative="1" as="geometry">
            <mxPoint x="80" y="850" as="targetPoint" />
          </mxGeometry>
        </mxCell>
        <mxCell id="rBD2oZokFc3KJVkXr7w9-1" value="&lt;b style=&quot;font-style: normal; font-variant-caps: normal; letter-spacing: normal; text-align: start; text-indent: 0px; text-transform: none; white-space: normal; word-spacing: 0px; -webkit-text-stroke-width: 0px; text-decoration: none; caret-color: rgb(0, 0, 0); color: rgb(0, 0, 0); font-weight: normal;&quot; id=&quot;docs-internal-guid-5e451ebb-7fff-aa71-9ea9-499701272533&quot;&gt;&lt;span style=&quot;font-size: 10pt; color: rgb(0, 0, 0); background-color: transparent; font-weight: 400; font-style: normal; font-variant-ligatures: normal; font-variant-caps: normal; font-variant-alternates: normal; font-variant-numeric: normal; font-variant-east-asian: normal; font-variant-position: normal; text-decoration: none; vertical-align: baseline; white-space: pre-wrap;&quot;&gt;Return stale-dated merchandise&lt;/span&gt;&lt;/b&gt;" style="ellipse;whiteSpace=wrap;html=1;fontFamily=Helvetica;fillColor=#cdeb8b;strokeColor=#36393d;movable=0;resizable=0;rotatable=0;deletable=0;editable=0;locked=1;connectable=0;" parent="1" vertex="1">
          <mxGeometry x="340" y="721.5" width="160" height="80" as="geometry" />
        </mxCell>
        <mxCell id="rBD2oZokFc3KJVkXr7w9-3" value="&amp;lt;&amp;lt;include&amp;gt;&amp;gt;" style="edgeStyle=none;html=1;endArrow=open;verticalAlign=bottom;dashed=1;labelBackgroundColor=none;rounded=0;exitX=1;exitY=0.5;exitDx=0;exitDy=0;fontFamily=Helvetica;movable=0;resizable=0;rotatable=0;deletable=0;editable=0;locked=1;connectable=0;entryX=0;entryY=0.5;entryDx=0;entryDy=0;" parent="1" source="rBD2oZokFc3KJVkXr7w9-1" target="rBD2oZokFc3KJVkXr7w9-4" edge="1">
          <mxGeometry width="160" relative="1" as="geometry">
            <mxPoint x="424" y="587" as="sourcePoint" />
            <mxPoint x="650" y="640" as="targetPoint" />
          </mxGeometry>
        </mxCell>
        <mxCell id="rBD2oZokFc3KJVkXr7w9-6" style="edgeStyle=orthogonalEdgeStyle;rounded=0;orthogonalLoop=1;jettySize=auto;html=1;exitX=1;exitY=0.5;exitDx=0;exitDy=0;entryX=0.5;entryY=0;entryDx=0;entryDy=0;endArrow=none;startFill=0;movable=0;resizable=0;rotatable=0;deletable=0;editable=0;locked=1;connectable=0;" parent="1" source="rBD2oZokFc3KJVkXr7w9-4" target="yWxOL_djojMHcs1YbIk0-12" edge="1">
          <mxGeometry relative="1" as="geometry">
            <Array as="points">
              <mxPoint x="880" y="691" />
              <mxPoint x="880" y="900" />
            </Array>
          </mxGeometry>
        </mxCell>
        <mxCell id="rBD2oZokFc3KJVkXr7w9-4" value="&lt;b style=&quot;font-style: normal; font-variant-caps: normal; letter-spacing: normal; text-align: start; text-indent: 0px; text-transform: none; white-space: normal; word-spacing: 0px; -webkit-text-stroke-width: 0px; text-decoration: none; caret-color: rgb(0, 0, 0); color: rgb(0, 0, 0); font-weight: normal;&quot; id=&quot;docs-internal-guid-5e451ebb-7fff-aa71-9ea9-499701272533&quot;&gt;&lt;span style=&quot;font-size: 10pt; color: rgb(0, 0, 0); background-color: transparent; font-weight: 400; font-style: normal; font-variant-ligatures: normal; font-variant-caps: normal; font-variant-alternates: normal; font-variant-numeric: normal; font-variant-east-asian: normal; font-variant-position: normal; text-decoration: none; vertical-align: baseline; white-space: pre-wrap;&quot;&gt;Record the returned &lt;/span&gt;&lt;/b&gt;&lt;span style=&quot;color: rgb(0, 0, 0); text-align: start; caret-color: rgb(0, 0, 0);&quot; id=&quot;docs-internal-guid-5e451ebb-7fff-aa71-9ea9-499701272533&quot;&gt;&lt;span style=&quot;font-size: 10pt; color: rgb(0, 0, 0); background-color: transparent; font-variant-alternates: normal; font-variant-numeric: normal; font-variant-east-asian: normal; font-variant-position: normal; vertical-align: baseline; white-space-collapse: preserve;&quot;&gt;merchandise&lt;/span&gt;&lt;/span&gt;" style="ellipse;whiteSpace=wrap;html=1;fontFamily=Helvetica;fillColor=#cdeb8b;strokeColor=#36393d;movable=0;resizable=0;rotatable=0;deletable=0;editable=0;locked=1;connectable=0;" parent="1" vertex="1">
          <mxGeometry x="587" y="651.5" width="160" height="80" as="geometry" />
        </mxCell>
      </root>
    </mxGraphModel>
  </diagram>
  <diagram id="5OkQXaBZcNPZbTuoAdGQ" name="Proposed System">
    <mxGraphModel grid="1" page="1" gridSize="10" guides="1" tooltips="1" connect="1" arrows="1" fold="1" pageScale="1" pageWidth="827" pageHeight="1169" math="0" shadow="0">
      <root>
        <mxCell id="0" />
        <mxCell id="1" parent="0" />
        <mxCell id="7N9ErN9xzrsb4zZOUDLl-1" value="" style="rounded=0;whiteSpace=wrap;html=1;movable=0;resizable=0;rotatable=0;deletable=0;editable=0;locked=1;connectable=0;" vertex="1" parent="1">
          <mxGeometry x="136" y="82" width="774" height="2158" as="geometry" />
        </mxCell>
        <mxCell id="7N9ErN9xzrsb4zZOUDLl-2" value="&lt;div&gt;&lt;span style=&quot;font-size: 16px;&quot;&gt;&lt;font&gt;Peerless Wholesale Vending&lt;/font&gt;&lt;/span&gt;&lt;/div&gt;" style="text;html=1;align=center;verticalAlign=middle;whiteSpace=wrap;rounded=0;fillColor=#fad7ac;strokeColor=#b46504;movable=0;resizable=0;rotatable=0;deletable=0;editable=0;locked=1;connectable=0;" vertex="1" parent="1">
          <mxGeometry x="414" y="106" width="212" height="34" as="geometry" />
        </mxCell>
        <mxCell id="7N9ErN9xzrsb4zZOUDLl-4" style="rounded=0;orthogonalLoop=1;jettySize=auto;html=1;exitX=0.5;exitY=0.5;exitDx=0;exitDy=0;exitPerimeter=0;entryX=0;entryY=0.5;entryDx=0;entryDy=0;endArrow=none;startFill=0;fontFamily=Helvetica;" edge="1" parent="1" source="7N9ErN9xzrsb4zZOUDLl-5" target="7N9ErN9xzrsb4zZOUDLl-53">
          <mxGeometry relative="1" as="geometry">
            <mxPoint x="340" y="800" as="targetPoint" />
          </mxGeometry>
        </mxCell>
        <mxCell id="oWFYHkPTToZGKH1NmmTU-29" style="rounded=0;orthogonalLoop=1;jettySize=auto;html=1;exitX=0.5;exitY=0.5;exitDx=0;exitDy=0;exitPerimeter=0;entryX=0;entryY=0.5;entryDx=0;entryDy=0;endArrow=none;startFill=0;" edge="1" parent="1" source="7N9ErN9xzrsb4zZOUDLl-5" target="oWFYHkPTToZGKH1NmmTU-28">
          <mxGeometry relative="1" as="geometry" />
        </mxCell>
        <mxCell id="7N9ErN9xzrsb4zZOUDLl-5" value="&lt;span id=&quot;docs-internal-guid-72f9077b-7fff-bdef-1617-5ab4ec365b33&quot;&gt;&lt;span style=&quot;font-size: 9pt; background-color: transparent; font-variant-numeric: normal; font-variant-east-asian: normal; font-variant-alternates: normal; font-variant-position: normal; font-variant-emoji: normal; vertical-align: baseline; white-space: pre-wrap;&quot;&gt;Sales manager&lt;/span&gt;&lt;/span&gt;" style="shape=umlActor;verticalLabelPosition=bottom;verticalAlign=top;html=1;outlineConnect=0;fontFamily=Helvetica;" vertex="1" parent="1">
          <mxGeometry x="60" y="554.5" width="30" height="60" as="geometry" />
        </mxCell>
        <mxCell id="7N9ErN9xzrsb4zZOUDLl-6" style="rounded=0;orthogonalLoop=1;jettySize=auto;html=1;exitX=0.5;exitY=0.5;exitDx=0;exitDy=0;exitPerimeter=0;entryX=0;entryY=0.5;entryDx=0;entryDy=0;fontFamily=Helvetica;endArrow=none;startFill=0;" edge="1" parent="1" target="7N9ErN9xzrsb4zZOUDLl-7">
          <mxGeometry relative="1" as="geometry">
            <mxPoint x="220" y="210.3529411764706" as="targetPoint" />
            <mxPoint x="75.00000000000011" y="220" as="sourcePoint" />
          </mxGeometry>
        </mxCell>
        <mxCell id="7N9ErN9xzrsb4zZOUDLl-7" value="&lt;p class=&quot;p1&quot; style=&quot;margin: 0px; font-variant-numeric: normal; font-variant-east-asian: normal; font-variant-alternates: normal; font-size-adjust: none; font-kerning: auto; font-optical-sizing: auto; font-feature-settings: normal; font-variation-settings: normal; font-variant-position: normal; font-variant-emoji: normal; font-stretch: normal; line-height: normal;&quot;&gt;&lt;font&gt;Make telephone&amp;nbsp;&lt;/font&gt;&lt;span style=&quot;background-color: transparent; color: light-dark(rgb(0, 0, 0), rgb(255, 255, 255));&quot;&gt;&lt;font&gt;sales and d&lt;/font&gt;&lt;/span&gt;&lt;font style=&quot;background-color: transparent; color: light-dark(rgb(0, 0, 0), rgb(255, 255, 255));&quot;&gt;irect sales calls&lt;/font&gt;&lt;/p&gt;" style="ellipse;whiteSpace=wrap;html=1;align=center;fillColor=light-dark(#ea6b66, #1f2f1e);strokeColor=light-dark(#874a4a, #ff8888);fontFamily=Helvetica;" vertex="1" parent="1">
          <mxGeometry x="330" y="190" width="170" height="80" as="geometry" />
        </mxCell>
        <mxCell id="7N9ErN9xzrsb4zZOUDLl-8" style="rounded=0;orthogonalLoop=1;jettySize=auto;html=1;exitX=0.5;exitY=0.5;exitDx=0;exitDy=0;exitPerimeter=0;entryX=0;entryY=0.5;entryDx=0;entryDy=0;endArrow=none;startFill=0;fontFamily=Helvetica;" edge="1" parent="1" source="7N9ErN9xzrsb4zZOUDLl-9" target="7N9ErN9xzrsb4zZOUDLl-34">
          <mxGeometry relative="1" as="geometry" />
        </mxCell>
        <mxCell id="7N9ErN9xzrsb4zZOUDLl-9" value="&lt;span id=&quot;docs-internal-guid-8d97b878-7fff-36c7-eeb0-1722fb72b11d&quot;&gt;&lt;span style=&quot;font-size: 10pt; background-color: transparent; font-variant-numeric: normal; font-variant-east-asian: normal; font-variant-alternates: normal; font-variant-position: normal; font-variant-emoji: normal; vertical-align: baseline; white-space: pre-wrap;&quot;&gt;Inventory clerks&lt;/span&gt;&lt;/span&gt;" style="shape=umlActor;verticalLabelPosition=bottom;verticalAlign=top;html=1;outlineConnect=0;fontFamily=Helvetica;" vertex="1" parent="1">
          <mxGeometry x="60" y="1250" width="30" height="60" as="geometry" />
        </mxCell>
        <mxCell id="7N9ErN9xzrsb4zZOUDLl-10" style="rounded=0;orthogonalLoop=1;jettySize=auto;html=1;exitX=0.5;exitY=0.5;exitDx=0;exitDy=0;exitPerimeter=0;entryX=0;entryY=0.5;entryDx=0;entryDy=0;fontFamily=Helvetica;endArrow=none;startFill=0;" edge="1" parent="1" source="7N9ErN9xzrsb4zZOUDLl-11" target="7N9ErN9xzrsb4zZOUDLl-34">
          <mxGeometry relative="1" as="geometry" />
        </mxCell>
        <mxCell id="7N9ErN9xzrsb4zZOUDLl-11" value="&lt;span id=&quot;docs-internal-guid-8d97b878-7fff-36c7-eeb0-1722fb72b11d&quot;&gt;&lt;span style=&quot;font-size: 10pt; background-color: transparent; font-variant-numeric: normal; font-variant-east-asian: normal; font-variant-alternates: normal; font-variant-position: normal; font-variant-emoji: normal; vertical-align: baseline; white-space: pre-wrap;&quot;&gt;Warehouse manager&lt;/span&gt;&lt;/span&gt;" style="shape=umlActor;verticalLabelPosition=bottom;verticalAlign=top;html=1;outlineConnect=0;fontFamily=Helvetica;" vertex="1" parent="1">
          <mxGeometry x="60" y="1140" width="30" height="60" as="geometry" />
        </mxCell>
        <mxCell id="7N9ErN9xzrsb4zZOUDLl-12" value="&lt;span id=&quot;docs-internal-guid-8d97b878-7fff-36c7-eeb0-1722fb72b11d&quot;&gt;&lt;span style=&quot;font-size: 10pt; background-color: transparent; font-variant-numeric: normal; font-variant-east-asian: normal; font-variant-alternates: normal; font-variant-position: normal; font-variant-emoji: normal; vertical-align: baseline; white-space: pre-wrap;&quot;&gt;Secretary&lt;/span&gt;&lt;/span&gt;" style="shape=umlActor;verticalLabelPosition=bottom;verticalAlign=top;html=1;outlineConnect=0;fontFamily=Helvetica;" vertex="1" parent="1">
          <mxGeometry x="60" y="1550" width="30" height="50" as="geometry" />
        </mxCell>
        <mxCell id="7N9ErN9xzrsb4zZOUDLl-15" style="rounded=0;orthogonalLoop=1;jettySize=auto;html=1;exitX=0.5;exitY=0.5;exitDx=0;exitDy=0;exitPerimeter=0;entryX=0;entryY=0.5;entryDx=0;entryDy=0;fontFamily=Helvetica;endArrow=none;startFill=0;" edge="1" parent="1" source="7N9ErN9xzrsb4zZOUDLl-16" target="7N9ErN9xzrsb4zZOUDLl-43">
          <mxGeometry relative="1" as="geometry" />
        </mxCell>
        <mxCell id="7N9ErN9xzrsb4zZOUDLl-16" value="&lt;span id=&quot;docs-internal-guid-a58ee1ed-7fff-1f47-399d-0a0d233d31ba&quot;&gt;&lt;span style=&quot;font-size: 9pt; background-color: transparent; font-variant-numeric: normal; font-variant-east-asian: normal; font-variant-alternates: normal; font-variant-position: normal; font-variant-emoji: normal; vertical-align: baseline; white-space: pre-wrap;&quot;&gt;Buyer&lt;/span&gt;&lt;/span&gt;" style="shape=umlActor;verticalLabelPosition=bottom;verticalAlign=top;html=1;outlineConnect=0;fontFamily=Helvetica;" vertex="1" parent="1">
          <mxGeometry x="60" y="447" width="30" height="60" as="geometry" />
        </mxCell>
        <mxCell id="7N9ErN9xzrsb4zZOUDLl-34" value="&lt;p class=&quot;p1&quot; style=&quot;margin: 0px; font-variant-numeric: normal; font-variant-east-asian: normal; font-variant-alternates: normal; font-size-adjust: none; font-kerning: auto; font-optical-sizing: auto; font-feature-settings: normal; font-variation-settings: normal; font-variant-position: normal; font-variant-emoji: normal; font-stretch: normal; line-height: normal;&quot;&gt;&lt;span id=&quot;docs-internal-guid-9a9fc2c7-7fff-ec3a-0ed7-c81821c8538c&quot;&gt;&lt;span style=&quot;font-size: 10pt; background-color: transparent; font-variant-numeric: normal; font-variant-east-asian: normal; font-variant-alternates: normal; font-variant-position: normal; font-variant-emoji: normal; vertical-align: baseline; white-space-collapse: preserve;&quot;&gt;Ship and receive merchandise&lt;/span&gt;&lt;/span&gt;&lt;/p&gt;" style="ellipse;whiteSpace=wrap;html=1;align=center;fontFamily=Helvetica;fillColor=#d5e8d4;strokeColor=#82b366;" vertex="1" parent="1">
          <mxGeometry x="215" y="1260" width="150" height="70" as="geometry" />
        </mxCell>
        <mxCell id="Psv51ALnQhIbPC6Vg1ap-2" style="rounded=0;orthogonalLoop=1;jettySize=auto;html=1;exitX=0.5;exitY=0.5;exitDx=0;exitDy=0;exitPerimeter=0;entryX=0;entryY=0.5;entryDx=0;entryDy=0;endArrow=none;startFill=0;" edge="1" parent="1" source="7N9ErN9xzrsb4zZOUDLl-16" target="oWFYHkPTToZGKH1NmmTU-12">
          <mxGeometry relative="1" as="geometry" />
        </mxCell>
        <mxCell id="7N9ErN9xzrsb4zZOUDLl-17" value="" style="group;fontFamily=Helvetica;" connectable="0" vertex="1" parent="1">
          <mxGeometry x="925" y="1890" width="140" height="100" as="geometry" />
        </mxCell>
        <mxCell id="7N9ErN9xzrsb4zZOUDLl-18" value="" style="shape=umlActor;verticalLabelPosition=bottom;verticalAlign=top;html=1;outlineConnect=0;container=1;fontFamily=Helvetica;" vertex="1" parent="7N9ErN9xzrsb4zZOUDLl-17">
          <mxGeometry x="55" width="30" height="60" as="geometry" />
        </mxCell>
        <mxCell id="7N9ErN9xzrsb4zZOUDLl-19" value="&lt;span style=&quot;text-wrap-mode: nowrap;&quot;&gt;&amp;lt;&amp;lt;&lt;/span&gt;&lt;span class=&quot;Apple-converted-space&quot; style=&quot;color: light-dark(rgb(0, 0, 0), rgb(255, 255, 255)); background-color: transparent; text-align: start;&quot;&gt;&amp;nbsp;I&lt;/span&gt;&lt;span style=&quot;color: light-dark(rgb(0, 0, 0), rgb(255, 255, 255)); background-color: transparent; text-align: start;&quot;&gt;ntegrated Distribution&lt;br&gt;&lt;/span&gt;&lt;span style=&quot;color: light-dark(rgb(0, 0, 0), rgb(255, 255, 255)); background-color: transparent; text-align: start;&quot;&gt;Management System&lt;/span&gt;&lt;span style=&quot;text-wrap-mode: nowrap;&quot;&gt;&amp;gt;&amp;gt;&lt;/span&gt;" style="text;html=1;align=center;verticalAlign=middle;whiteSpace=wrap;rounded=0;fontFamily=Helvetica;" vertex="1" parent="7N9ErN9xzrsb4zZOUDLl-17">
          <mxGeometry y="70" width="140" height="30" as="geometry" />
        </mxCell>
        <mxCell id="7N9ErN9xzrsb4zZOUDLl-21" value="&lt;span id=&quot;docs-internal-guid-8d97b878-7fff-36c7-eeb0-1722fb72b11d&quot;&gt;&lt;span style=&quot;font-size: 10pt; background-color: transparent; font-variant-numeric: normal; font-variant-east-asian: normal; font-variant-alternates: normal; font-variant-position: normal; font-variant-emoji: normal; vertical-align: baseline; white-space: pre-wrap;&quot;&gt;Truck drivers&lt;/span&gt;&lt;/span&gt;" style="shape=umlActor;verticalLabelPosition=bottom;verticalAlign=top;html=1;outlineConnect=0;fontFamily=Helvetica;" vertex="1" parent="1">
          <mxGeometry x="60" y="995" width="30" height="60" as="geometry" />
        </mxCell>
        <mxCell id="7N9ErN9xzrsb4zZOUDLl-23" style="rounded=0;orthogonalLoop=1;jettySize=auto;html=1;exitX=0.5;exitY=0.5;exitDx=0;exitDy=0;exitPerimeter=0;entryX=0;entryY=0.5;entryDx=0;entryDy=0;endArrow=none;startFill=0;fontFamily=Helvetica;" edge="1" parent="1" source="7N9ErN9xzrsb4zZOUDLl-24" target="7N9ErN9xzrsb4zZOUDLl-53">
          <mxGeometry relative="1" as="geometry" />
        </mxCell>
        <mxCell id="oWFYHkPTToZGKH1NmmTU-30" style="rounded=0;orthogonalLoop=1;jettySize=auto;html=1;exitX=0.5;exitY=0.5;exitDx=0;exitDy=0;exitPerimeter=0;entryX=0;entryY=0.5;entryDx=0;entryDy=0;endArrow=none;startFill=0;" edge="1" parent="1" source="7N9ErN9xzrsb4zZOUDLl-24" target="oWFYHkPTToZGKH1NmmTU-28">
          <mxGeometry relative="1" as="geometry" />
        </mxCell>
        <mxCell id="7N9ErN9xzrsb4zZOUDLl-24" value="&lt;span id=&quot;docs-internal-guid-8d97b878-7fff-36c7-eeb0-1722fb72b11d&quot;&gt;&lt;span style=&quot;font-size: 10pt; background-color: transparent; font-variant-numeric: normal; font-variant-east-asian: normal; font-variant-alternates: normal; font-variant-position: normal; font-variant-emoji: normal; vertical-align: baseline; white-space: pre-wrap;&quot;&gt;General Manager&lt;/span&gt;&lt;/span&gt;" style="shape=umlActor;verticalLabelPosition=bottom;verticalAlign=top;html=1;outlineConnect=0;fontFamily=Helvetica;" vertex="1" parent="1">
          <mxGeometry x="59.5" y="700" width="30" height="60" as="geometry" />
        </mxCell>
        <mxCell id="7N9ErN9xzrsb4zZOUDLl-25" style="rounded=0;orthogonalLoop=1;jettySize=auto;html=1;exitX=0.5;exitY=0.5;exitDx=0;exitDy=0;exitPerimeter=0;entryX=0;entryY=0.5;entryDx=0;entryDy=0;fontFamily=Helvetica;endArrow=none;startFill=0;" edge="1" parent="1" source="7N9ErN9xzrsb4zZOUDLl-26" target="7N9ErN9xzrsb4zZOUDLl-44">
          <mxGeometry relative="1" as="geometry" />
        </mxCell>
        <mxCell id="7N9ErN9xzrsb4zZOUDLl-26" value="&lt;span id=&quot;docs-internal-guid-8d97b878-7fff-36c7-eeb0-1722fb72b11d&quot;&gt;&lt;span style=&quot;font-size: 10pt; background-color: transparent; font-variant-numeric: normal; font-variant-east-asian: normal; font-variant-alternates: normal; font-variant-position: normal; font-variant-emoji: normal; vertical-align: baseline; white-space: pre-wrap;&quot;&gt;Bookkeeping manager&lt;/span&gt;&lt;/span&gt;" style="shape=umlActor;verticalLabelPosition=bottom;verticalAlign=top;html=1;outlineConnect=0;fontFamily=Helvetica;" vertex="1" parent="1">
          <mxGeometry x="60" y="1695" width="30" height="60" as="geometry" />
        </mxCell>
        <mxCell id="7N9ErN9xzrsb4zZOUDLl-27" style="rounded=0;orthogonalLoop=1;jettySize=auto;html=1;exitX=0.5;exitY=0.5;exitDx=0;exitDy=0;exitPerimeter=0;entryX=0;entryY=0.5;entryDx=0;entryDy=0;fontFamily=Helvetica;endArrow=none;startFill=0;" edge="1" parent="1" source="7N9ErN9xzrsb4zZOUDLl-30" target="7N9ErN9xzrsb4zZOUDLl-37">
          <mxGeometry relative="1" as="geometry" />
        </mxCell>
        <mxCell id="7N9ErN9xzrsb4zZOUDLl-29" style="rounded=0;orthogonalLoop=1;jettySize=auto;html=1;exitX=0.5;exitY=0.5;exitDx=0;exitDy=0;exitPerimeter=0;entryX=0;entryY=0.5;entryDx=0;entryDy=0;endArrow=none;startFill=0;fontFamily=Helvetica;" edge="1" parent="1" source="7N9ErN9xzrsb4zZOUDLl-30" target="7N9ErN9xzrsb4zZOUDLl-71">
          <mxGeometry relative="1" as="geometry" />
        </mxCell>
        <mxCell id="7N9ErN9xzrsb4zZOUDLl-30" value="&lt;span id=&quot;docs-internal-guid-8d97b878-7fff-36c7-eeb0-1722fb72b11d&quot;&gt;&lt;span style=&quot;font-size: 10pt; background-color: transparent; font-variant-numeric: normal; font-variant-east-asian: normal; font-variant-alternates: normal; font-variant-position: normal; font-variant-emoji: normal; vertical-align: baseline; white-space: pre-wrap;&quot;&gt;Route drivers&lt;/span&gt;&lt;/span&gt;" style="shape=umlActor;verticalLabelPosition=bottom;verticalAlign=top;html=1;outlineConnect=0;fontFamily=Helvetica;" vertex="1" parent="1">
          <mxGeometry x="60" y="820" width="30" height="60" as="geometry" />
        </mxCell>
        <mxCell id="7N9ErN9xzrsb4zZOUDLl-31" style="rounded=0;orthogonalLoop=1;jettySize=auto;html=1;exitX=0.5;exitY=0.5;exitDx=0;exitDy=0;exitPerimeter=0;entryX=0;entryY=0.5;entryDx=0;entryDy=0;fontFamily=Helvetica;endArrow=none;startFill=0;" edge="1" parent="1" source="7N9ErN9xzrsb4zZOUDLl-32" target="7N9ErN9xzrsb4zZOUDLl-44">
          <mxGeometry relative="1" as="geometry" />
        </mxCell>
        <mxCell id="7N9ErN9xzrsb4zZOUDLl-32" value="&lt;span id=&quot;docs-internal-guid-8d97b878-7fff-36c7-eeb0-1722fb72b11d&quot;&gt;&lt;span style=&quot;font-size: 10pt; background-color: transparent; font-variant-numeric: normal; font-variant-east-asian: normal; font-variant-alternates: normal; font-variant-position: normal; font-variant-emoji: normal; vertical-align: baseline; white-space: pre-wrap;&quot;&gt;Bookkeeping staff&lt;/span&gt;&lt;/span&gt;" style="shape=umlActor;verticalLabelPosition=bottom;verticalAlign=top;html=1;outlineConnect=0;fontFamily=Helvetica;" vertex="1" parent="1">
          <mxGeometry x="59.5" y="1800" width="30" height="60" as="geometry" />
        </mxCell>
        <mxCell id="7N9ErN9xzrsb4zZOUDLl-35" value="&lt;span id=&quot;docs-internal-guid-16d97441-7fff-4b6b-f18f-fee4b0ce08a8&quot;&gt;&lt;span style=&quot;font-size: 9pt; background-color: transparent; font-variant-numeric: normal; font-variant-east-asian: normal; font-variant-alternates: normal; font-variant-position: normal; font-variant-emoji: normal; vertical-align: baseline; white-space: pre-wrap;&quot;&gt;Salesman&lt;/span&gt;&lt;/span&gt;" style="shape=umlActor;verticalLabelPosition=bottom;verticalAlign=top;html=1;outlineConnect=0;fontFamily=Helvetica;" vertex="1" parent="1">
          <mxGeometry x="60" y="200" width="30" height="60" as="geometry" />
        </mxCell>
        <mxCell id="7N9ErN9xzrsb4zZOUDLl-36" value="&lt;font&gt;Record sale order&lt;/font&gt;" style="ellipse;whiteSpace=wrap;html=1;fillColor=light-dark(#ea6b66, #1f2f1e);strokeColor=light-dark(#874a4a, #ff8888);fontFamily=Helvetica;" vertex="1" parent="1">
          <mxGeometry x="680" y="180" width="140" height="80" as="geometry" />
        </mxCell>
        <mxCell id="7N9ErN9xzrsb4zZOUDLl-37" value="&lt;p class=&quot;p1&quot; style=&quot;margin: 0px; font-variant-numeric: normal; font-variant-east-asian: normal; font-variant-alternates: normal; font-size-adjust: none; font-kerning: auto; font-optical-sizing: auto; font-feature-settings: normal; font-variation-settings: normal; font-variant-position: normal; font-variant-emoji: normal; font-stretch: normal; line-height: normal;&quot;&gt;&lt;span id=&quot;docs-internal-guid-acf09ba3-7fff-47e1-b754-64e6082e4978&quot;&gt;&lt;span style=&quot;font-size: 10pt; background-color: transparent; font-variant-numeric: normal; font-variant-east-asian: normal; font-variant-alternates: normal; font-variant-position: normal; font-variant-emoji: normal; vertical-align: baseline; white-space-collapse: preserve;&quot;&gt;Pull merchandise from shelves&lt;/span&gt;&lt;/span&gt;&lt;/p&gt;" style="ellipse;whiteSpace=wrap;html=1;align=center;fontFamily=Helvetica;fillColor=#d5e8d4;strokeColor=#82b366;" vertex="1" parent="1">
          <mxGeometry x="205" y="1135" width="150" height="70" as="geometry" />
        </mxCell>
        <mxCell id="7N9ErN9xzrsb4zZOUDLl-38" value="&amp;lt;&amp;lt;include&amp;gt;&amp;gt;" style="edgeStyle=none;html=1;endArrow=open;verticalAlign=bottom;dashed=1;labelBackgroundColor=none;rounded=0;exitX=1.003;exitY=0.399;exitDx=0;exitDy=0;exitPerimeter=0;entryX=0;entryY=0.5;entryDx=0;entryDy=0;fontFamily=Helvetica;" edge="1" parent="1" source="7N9ErN9xzrsb4zZOUDLl-7" target="7N9ErN9xzrsb4zZOUDLl-36">
          <mxGeometry width="160" relative="1" as="geometry">
            <mxPoint x="290" y="350" as="sourcePoint" />
            <mxPoint x="450" y="350" as="targetPoint" />
          </mxGeometry>
        </mxCell>
        <mxCell id="7N9ErN9xzrsb4zZOUDLl-39" value="&amp;lt;&amp;lt;extend&amp;gt;&amp;gt;" style="edgeStyle=none;html=1;startArrow=open;endArrow=none;startSize=12;verticalAlign=bottom;dashed=1;labelBackgroundColor=none;rounded=0;fontFamily=Helvetica;entryX=0.5;entryY=0;entryDx=0;entryDy=0;exitX=0.5;exitY=1;exitDx=0;exitDy=0;" edge="1" parent="1" source="7N9ErN9xzrsb4zZOUDLl-37" target="7N9ErN9xzrsb4zZOUDLl-34">
          <mxGeometry width="160" relative="1" as="geometry">
            <mxPoint x="430" y="1220" as="sourcePoint" />
            <mxPoint x="500" y="1220" as="targetPoint" />
          </mxGeometry>
        </mxCell>
        <mxCell id="7N9ErN9xzrsb4zZOUDLl-40" value="&lt;font&gt;Generate purchase list&lt;/font&gt;" style="ellipse;whiteSpace=wrap;html=1;fontFamily=Helvetica;fillColor=#ffcc99;strokeColor=#36393d;" vertex="1" parent="1">
          <mxGeometry x="650" y="442" width="140" height="70" as="geometry" />
        </mxCell>
        <mxCell id="7N9ErN9xzrsb4zZOUDLl-41" style="rounded=0;orthogonalLoop=1;jettySize=auto;html=1;exitX=0.5;exitY=0.5;exitDx=0;exitDy=0;exitPerimeter=0;entryX=0;entryY=0.5;entryDx=0;entryDy=0;fontFamily=Helvetica;endArrow=none;startFill=0;" edge="1" parent="1" source="7N9ErN9xzrsb4zZOUDLl-42" target="7N9ErN9xzrsb4zZOUDLl-43">
          <mxGeometry relative="1" as="geometry" />
        </mxCell>
        <mxCell id="7N9ErN9xzrsb4zZOUDLl-42" value="&lt;span id=&quot;docs-internal-guid-8d97b878-7fff-36c7-eeb0-1722fb72b11d&quot;&gt;&lt;span style=&quot;font-size: 10pt; background-color: transparent; font-variant-numeric: normal; font-variant-east-asian: normal; font-variant-alternates: normal; font-variant-position: normal; font-variant-emoji: normal; vertical-align: baseline; white-space: pre-wrap;&quot;&gt;Sales staff&lt;/span&gt;&lt;/span&gt;" style="shape=umlActor;verticalLabelPosition=bottom;verticalAlign=top;html=1;outlineConnect=0;fontFamily=Helvetica;" vertex="1" parent="1">
          <mxGeometry x="60" y="320" width="30" height="60" as="geometry" />
        </mxCell>
        <mxCell id="7N9ErN9xzrsb4zZOUDLl-43" value="&lt;font&gt;Evaluate product quality&amp;nbsp;&lt;/font&gt;" style="ellipse;whiteSpace=wrap;html=1;fontFamily=Helvetica;fillColor=#ffcccc;strokeColor=#36393d;" vertex="1" parent="1">
          <mxGeometry x="259.5" y="330" width="140" height="70" as="geometry" />
        </mxCell>
        <mxCell id="7N9ErN9xzrsb4zZOUDLl-44" value="&lt;font&gt;Handle day-to-day bookkeeping&lt;/font&gt;" style="ellipse;whiteSpace=wrap;html=1;fontFamily=Helvetica;fillColor=#d0cee2;strokeColor=#56517e;" vertex="1" parent="1">
          <mxGeometry x="249.5" y="1719" width="140" height="70" as="geometry" />
        </mxCell>
        <mxCell id="7N9ErN9xzrsb4zZOUDLl-45" value="&lt;font&gt;Record the location of a&amp;nbsp;&lt;/font&gt;&lt;div&gt;&lt;font&gt;new installed machine&lt;/font&gt;&lt;/div&gt;" style="ellipse;whiteSpace=wrap;html=1;fontFamily=Helvetica;fillColor=#b0e3e6;strokeColor=#0e8088;" vertex="1" parent="1">
          <mxGeometry x="367.5" y="1600" width="180" height="70" as="geometry" />
        </mxCell>
        <mxCell id="7N9ErN9xzrsb4zZOUDLl-46" style="rounded=0;orthogonalLoop=1;jettySize=auto;html=1;exitX=1;exitY=0.5;exitDx=0;exitDy=0;entryX=0.5;entryY=0.5;entryDx=0;entryDy=0;entryPerimeter=0;fontFamily=Helvetica;endArrow=none;startFill=0;edgeStyle=orthogonalEdgeStyle;" edge="1" parent="1" source="7N9ErN9xzrsb4zZOUDLl-36" target="oWFYHkPTToZGKH1NmmTU-3">
          <mxGeometry relative="1" as="geometry" />
        </mxCell>
        <mxCell id="7N9ErN9xzrsb4zZOUDLl-47" style="rounded=0;orthogonalLoop=1;jettySize=auto;html=1;exitX=0.5;exitY=0.5;exitDx=0;exitDy=0;exitPerimeter=0;endArrow=none;startFill=0;fontFamily=Helvetica;" edge="1" parent="1" source="7N9ErN9xzrsb4zZOUDLl-48" target="7N9ErN9xzrsb4zZOUDLl-54">
          <mxGeometry relative="1" as="geometry" />
        </mxCell>
        <mxCell id="43n4Quq9ew5v-RksAew7-8" style="rounded=0;orthogonalLoop=1;jettySize=auto;html=1;exitX=0.5;exitY=0.5;exitDx=0;exitDy=0;exitPerimeter=0;entryX=0;entryY=0.5;entryDx=0;entryDy=0;" edge="1" parent="1" source="7N9ErN9xzrsb4zZOUDLl-48" target="43n4Quq9ew5v-RksAew7-5">
          <mxGeometry relative="1" as="geometry" />
        </mxCell>
        <mxCell id="7N9ErN9xzrsb4zZOUDLl-48" value="&lt;span style=&quot;font-size: 13.3333px; white-space: pre-wrap;&quot;&gt;Kippy Weil&lt;/span&gt;" style="shape=umlActor;verticalLabelPosition=bottom;verticalAlign=top;html=1;outlineConnect=0;fontFamily=Helvetica;" vertex="1" parent="1">
          <mxGeometry x="89.5" y="1950" width="30" height="60" as="geometry" />
        </mxCell>
        <mxCell id="7N9ErN9xzrsb4zZOUDLl-49" style="edgeStyle=orthogonalEdgeStyle;rounded=0;orthogonalLoop=1;jettySize=auto;html=1;exitX=0.5;exitY=0;exitDx=0;exitDy=0;exitPerimeter=0;fontFamily=Helvetica;" edge="1" parent="1" source="7N9ErN9xzrsb4zZOUDLl-51" target="7N9ErN9xzrsb4zZOUDLl-32">
          <mxGeometry relative="1" as="geometry">
            <Array as="points">
              <mxPoint x="34.5" y="1920" />
              <mxPoint x="74.5" y="1920" />
            </Array>
            <mxPoint x="74.5" y="1940" as="targetPoint" />
          </mxGeometry>
        </mxCell>
        <mxCell id="7N9ErN9xzrsb4zZOUDLl-50" style="rounded=0;orthogonalLoop=1;jettySize=auto;html=1;exitX=0.5;exitY=0.5;exitDx=0;exitDy=0;exitPerimeter=0;entryX=0;entryY=0.5;entryDx=0;entryDy=0;endArrow=none;startFill=0;fontFamily=Helvetica;" edge="1" parent="1" source="7N9ErN9xzrsb4zZOUDLl-51" target="7N9ErN9xzrsb4zZOUDLl-55">
          <mxGeometry relative="1" as="geometry" />
        </mxCell>
        <mxCell id="7N9ErN9xzrsb4zZOUDLl-51" value="&lt;span id=&quot;docs-internal-guid-8d97b878-7fff-36c7-eeb0-1722fb72b11d&quot;&gt;&lt;span style=&quot;font-size: 10pt; background-color: transparent; font-variant-numeric: normal; font-variant-east-asian: normal; font-variant-alternates: normal; font-variant-position: normal; font-variant-emoji: normal; vertical-align: baseline; white-space: pre-wrap;&quot;&gt;Computer operator&lt;/span&gt;&lt;/span&gt;" style="shape=umlActor;verticalLabelPosition=bottom;verticalAlign=top;html=1;outlineConnect=0;fontFamily=Helvetica;" vertex="1" parent="1">
          <mxGeometry x="19.5" y="2040" width="30" height="60" as="geometry" />
        </mxCell>
        <mxCell id="7N9ErN9xzrsb4zZOUDLl-52" style="edgeStyle=orthogonalEdgeStyle;rounded=0;orthogonalLoop=1;jettySize=auto;html=1;exitX=0.5;exitY=0;exitDx=0;exitDy=0;exitPerimeter=0;fontFamily=Helvetica;" edge="1" parent="1" source="7N9ErN9xzrsb4zZOUDLl-48" target="7N9ErN9xzrsb4zZOUDLl-32">
          <mxGeometry relative="1" as="geometry">
            <mxPoint x="44.50000000000023" y="2010" as="sourcePoint" />
            <mxPoint x="74.5" y="1900" as="targetPoint" />
            <Array as="points">
              <mxPoint x="104.5" y="1920" />
              <mxPoint x="74.5" y="1920" />
            </Array>
          </mxGeometry>
        </mxCell>
        <mxCell id="7N9ErN9xzrsb4zZOUDLl-53" value="&lt;b style=&quot;font-style: normal; font-variant-caps: normal; letter-spacing: normal; text-align: start; text-indent: 0px; text-transform: none; white-space: normal; word-spacing: 0px; -webkit-text-stroke-width: 0px; text-decoration: none; caret-color: rgb(0, 0, 0); color: rgb(0, 0, 0); font-weight: normal;&quot; id=&quot;docs-internal-guid-32a659cb-7fff-415b-46f4-145acd59982e&quot;&gt;&lt;span style=&quot;font-size: 10pt; color: rgb(0, 0, 0); background-color: transparent; font-weight: 400; font-style: normal; font-variant-ligatures: normal; font-variant-caps: normal; font-variant-alternates: normal; font-variant-numeric: normal; font-variant-east-asian: normal; font-variant-position: normal; text-decoration: none; vertical-align: baseline; white-space: pre-wrap;&quot;&gt;Decide additional vending machine locations&lt;/span&gt;&lt;/b&gt;" style="ellipse;whiteSpace=wrap;html=1;fontFamily=Helvetica;fillColor=#ffff88;strokeColor=#36393d;" vertex="1" parent="1">
          <mxGeometry x="285" y="710" width="169.5" height="78.5" as="geometry" />
        </mxCell>
        <mxCell id="7N9ErN9xzrsb4zZOUDLl-54" value="Handle all vending-related expenses" style="ellipse;whiteSpace=wrap;html=1;fillColor=#ffff88;strokeColor=#36393d;fontFamily=Helvetica;" vertex="1" parent="1">
          <mxGeometry x="210" y="1880" width="140" height="80" as="geometry" />
        </mxCell>
        <mxCell id="7N9ErN9xzrsb4zZOUDLl-55" value="Handle computer operation" style="ellipse;whiteSpace=wrap;html=1;fillColor=#d0cee2;strokeColor=#56517e;fontFamily=Helvetica;" vertex="1" parent="1">
          <mxGeometry x="252" y="2030" width="135" height="80" as="geometry" />
        </mxCell>
        <mxCell id="7N9ErN9xzrsb4zZOUDLl-56" value="&lt;b style=&quot;font-style: normal; font-variant-caps: normal; letter-spacing: normal; text-align: start; text-indent: 0px; text-transform: none; white-space: normal; word-spacing: 0px; -webkit-text-stroke-width: 0px; text-decoration: none; caret-color: rgb(0, 0, 0); color: rgb(0, 0, 0); font-weight: normal;&quot; id=&quot;docs-internal-guid-5e451ebb-7fff-aa71-9ea9-499701272533&quot;&gt;&lt;span style=&quot;font-size: 10pt; color: rgb(0, 0, 0); background-color: transparent; font-weight: 400; font-style: normal; font-variant-ligatures: normal; font-variant-caps: normal; font-variant-alternates: normal; font-variant-numeric: normal; font-variant-east-asian: normal; font-variant-position: normal; text-decoration: none; vertical-align: baseline; white-space: pre-wrap;&quot;&gt;Restock vending machines and collect money&lt;/span&gt;&lt;/b&gt;" style="ellipse;whiteSpace=wrap;html=1;fontFamily=Helvetica;fillColor=#cdeb8b;strokeColor=#36393d;" vertex="1" parent="1">
          <mxGeometry x="384.5" y="900" width="170" height="80" as="geometry" />
        </mxCell>
        <mxCell id="7N9ErN9xzrsb4zZOUDLl-57" value="&lt;div style=&quot;&quot;&gt;&lt;span style=&quot;background-color: transparent; font-size: 13.3333px; white-space-collapse: preserve;&quot;&gt;Determine daily stock requirements for products&lt;/span&gt;&lt;/div&gt;" style="ellipse;whiteSpace=wrap;html=1;fontFamily=Helvetica;align=center;fillColor=#cdeb8b;strokeColor=#36393d;" vertex="1" parent="1">
          <mxGeometry x="505.5" y="980" width="180" height="90" as="geometry" />
        </mxCell>
        <mxCell id="7N9ErN9xzrsb4zZOUDLl-58" style="rounded=0;orthogonalLoop=1;jettySize=auto;html=1;exitX=0.5;exitY=0.5;exitDx=0;exitDy=0;exitPerimeter=0;endArrow=none;startFill=0;fontFamily=Helvetica;" edge="1" parent="1" source="7N9ErN9xzrsb4zZOUDLl-30" target="7N9ErN9xzrsb4zZOUDLl-56">
          <mxGeometry relative="1" as="geometry">
            <mxPoint x="105" y="880" as="sourcePoint" />
            <mxPoint x="340" y="810" as="targetPoint" />
          </mxGeometry>
        </mxCell>
        <mxCell id="7N9ErN9xzrsb4zZOUDLl-59" style="rounded=0;orthogonalLoop=1;jettySize=auto;html=1;exitX=0.5;exitY=0.5;exitDx=0;exitDy=0;exitPerimeter=0;entryX=0;entryY=0.5;entryDx=0;entryDy=0;endArrow=none;startFill=0;fontFamily=Helvetica;" edge="1" parent="1" source="7N9ErN9xzrsb4zZOUDLl-30" target="7N9ErN9xzrsb4zZOUDLl-57">
          <mxGeometry relative="1" as="geometry">
            <mxPoint x="85" y="870" as="sourcePoint" />
            <mxPoint x="321" y="885" as="targetPoint" />
          </mxGeometry>
        </mxCell>
        <mxCell id="7N9ErN9xzrsb4zZOUDLl-60" value="Generate Integrated distribution management package" style="ellipse;whiteSpace=wrap;html=1;fillColor=#d0cee2;fontFamily=Helvetica;strokeColor=#56517e;" vertex="1" parent="1">
          <mxGeometry x="510.5" y="2124" width="170" height="90" as="geometry" />
        </mxCell>
        <mxCell id="7N9ErN9xzrsb4zZOUDLl-61" style="rounded=0;orthogonalLoop=1;jettySize=auto;html=1;exitX=0.5;exitY=0.5;exitDx=0;exitDy=0;exitPerimeter=0;entryX=1;entryY=0.5;entryDx=0;entryDy=0;fontFamily=Helvetica;endArrow=none;startFill=0;edgeStyle=orthogonalEdgeStyle;" edge="1" parent="1" source="7N9ErN9xzrsb4zZOUDLl-18" target="7N9ErN9xzrsb4zZOUDLl-60">
          <mxGeometry relative="1" as="geometry">
            <mxPoint x="898" y="1009.9999999999998" as="sourcePoint" />
            <mxPoint x="549.9999999999998" y="2055" as="targetPoint" />
            <Array as="points">
              <mxPoint x="995" y="2169" />
            </Array>
          </mxGeometry>
        </mxCell>
        <mxCell id="7N9ErN9xzrsb4zZOUDLl-62" style="rounded=0;orthogonalLoop=1;jettySize=auto;html=1;exitX=1;exitY=0.5;exitDx=0;exitDy=0;entryX=0.5;entryY=0.5;entryDx=0;entryDy=0;entryPerimeter=0;endArrow=none;startFill=0;fontFamily=Helvetica;edgeStyle=orthogonalEdgeStyle;" edge="1" parent="1" source="7N9ErN9xzrsb4zZOUDLl-44" target="7N9ErN9xzrsb4zZOUDLl-18">
          <mxGeometry relative="1" as="geometry">
            <Array as="points">
              <mxPoint x="995" y="1754" />
            </Array>
          </mxGeometry>
        </mxCell>
        <mxCell id="7N9ErN9xzrsb4zZOUDLl-63" style="rounded=0;orthogonalLoop=1;jettySize=auto;html=1;endArrow=none;startFill=0;fontFamily=Helvetica;edgeStyle=orthogonalEdgeStyle;entryX=0.5;entryY=0.5;entryDx=0;entryDy=0;entryPerimeter=0;exitX=1;exitY=0.5;exitDx=0;exitDy=0;" edge="1" parent="1" source="7N9ErN9xzrsb4zZOUDLl-54" target="7N9ErN9xzrsb4zZOUDLl-18">
          <mxGeometry relative="1" as="geometry">
            <Array as="points">
              <mxPoint x="700" y="1920" />
              <mxPoint x="700" y="1920" />
            </Array>
            <mxPoint x="554.5" y="2300" as="sourcePoint" />
            <mxPoint x="1270" y="2190" as="targetPoint" />
          </mxGeometry>
        </mxCell>
        <mxCell id="7N9ErN9xzrsb4zZOUDLl-64" value="&amp;lt;&amp;lt;extend&amp;gt;&amp;gt;" style="edgeStyle=none;html=1;startArrow=open;endArrow=none;startSize=12;verticalAlign=bottom;dashed=1;labelBackgroundColor=none;rounded=0;entryX=0;entryY=0.5;entryDx=0;entryDy=0;exitX=1;exitY=0.5;exitDx=0;exitDy=0;fontFamily=Helvetica;" edge="1" parent="1" source="7N9ErN9xzrsb4zZOUDLl-65" target="7N9ErN9xzrsb4zZOUDLl-60">
          <mxGeometry width="160" relative="1" as="geometry">
            <mxPoint x="469.5" y="2260" as="sourcePoint" />
            <mxPoint x="629.5" y="2260" as="targetPoint" />
          </mxGeometry>
        </mxCell>
        <mxCell id="7N9ErN9xzrsb4zZOUDLl-65" value="Generate Other Report" style="ellipse;whiteSpace=wrap;html=1;fillColor=#d0cee2;fontFamily=Helvetica;strokeColor=#56517e;" vertex="1" parent="1">
          <mxGeometry x="252" y="2134" width="140" height="70" as="geometry" />
        </mxCell>
        <mxCell id="7N9ErN9xzrsb4zZOUDLl-66" value="&lt;b style=&quot;font-style: normal; font-variant-caps: normal; letter-spacing: normal; text-align: start; text-indent: 0px; text-transform: none; white-space: normal; word-spacing: 0px; -webkit-text-stroke-width: 0px; text-decoration: none; caret-color: rgb(0, 0, 0); color: rgb(0, 0, 0); font-weight: normal;&quot; id=&quot;docs-internal-guid-b3c3eb54-7fff-ba98-5e95-1609cec378e6&quot;&gt;&lt;span style=&quot;font-size: 10pt; color: rgb(0, 0, 0); background-color: transparent; font-weight: 400; font-style: normal; font-variant-ligatures: normal; font-variant-caps: normal; font-variant-alternates: normal; font-variant-numeric: normal; font-variant-east-asian: normal; font-variant-position: normal; text-decoration: none; vertical-align: baseline; white-space: pre-wrap;&quot;&gt;Create a order form to record the inventory depletion&lt;/span&gt;&lt;/b&gt;" style="ellipse;whiteSpace=wrap;html=1;align=center;fontFamily=Helvetica;fillColor=#dae8fc;strokeColor=#6c8ebf;" vertex="1" parent="1">
          <mxGeometry x="190" y="1350" width="160" height="80" as="geometry" />
        </mxCell>
        <mxCell id="7N9ErN9xzrsb4zZOUDLl-67" style="rounded=0;orthogonalLoop=1;jettySize=auto;html=1;exitX=0.5;exitY=0.5;exitDx=0;exitDy=0;exitPerimeter=0;entryX=0;entryY=0.5;entryDx=0;entryDy=0;endArrow=none;startFill=0;fontFamily=Helvetica;" edge="1" parent="1" source="7N9ErN9xzrsb4zZOUDLl-9" target="7N9ErN9xzrsb4zZOUDLl-66">
          <mxGeometry relative="1" as="geometry">
            <mxPoint x="85" y="1290" as="sourcePoint" />
            <mxPoint x="380" y="1245" as="targetPoint" />
          </mxGeometry>
        </mxCell>
        <mxCell id="7N9ErN9xzrsb4zZOUDLl-68" value="&lt;b id=&quot;docs-internal-guid-1ce834e2-7fff-48af-f392-65001c2002f3&quot; style=&quot;font-style: normal; font-variant-caps: normal; letter-spacing: normal; text-align: start; text-indent: 0px; text-transform: none; white-space: normal; word-spacing: 0px; -webkit-text-stroke-width: 0px; text-decoration: none; caret-color: rgb(0, 0, 0); color: rgb(0, 0, 0); font-weight: normal;&quot;&gt;&lt;span style=&quot;font-size: 10pt; color: rgb(0, 0, 0); background-color: transparent; font-weight: 400; font-style: normal; font-variant-ligatures: normal; font-variant-caps: normal; font-variant-alternates: normal; font-variant-numeric: normal; font-variant-east-asian: normal; font-variant-position: normal; text-decoration: none; vertical-align: baseline; white-space: pre-wrap;&quot;&gt;R&lt;/span&gt;&lt;/b&gt;&lt;span style=&quot;text-align: start; caret-color: rgb(0, 0, 0); color: rgb(0, 0, 0);&quot;&gt;&lt;span style=&quot;font-size: 10pt; font-variant-ligatures: normal; font-variant-alternates: normal; font-variant-numeric: normal; font-variant-east-asian: normal; font-variant-position: normal; vertical-align: baseline; white-space: pre-wrap; color: rgb(0, 0, 0);&quot;&gt;ecords inventory depletion&lt;/span&gt;&lt;/span&gt;" style="ellipse;whiteSpace=wrap;html=1;fontFamily=Helvetica;align=center;fillColor=#FFFF88;strokeColor=#36393d;" vertex="1" parent="1">
          <mxGeometry x="460" y="1800" width="145" height="70" as="geometry" />
        </mxCell>
        <mxCell id="7N9ErN9xzrsb4zZOUDLl-70" value="&lt;div style=&quot;&quot;&gt;&lt;span style=&quot;text-align: start;&quot; id=&quot;docs-internal-guid-cf98c494-7fff-6c7a-f5ac-4d1e6ce48f7c&quot;&gt;&lt;span style=&quot;font-size: 10pt; font-variant-ligatures: normal; font-variant-alternates: normal; font-variant-numeric: normal; font-variant-east-asian: normal; font-variant-position: normal; vertical-align: baseline; white-space: pre-wrap;&quot;&gt;Perform minor repairs&amp;nbsp;&lt;/span&gt;&lt;/span&gt;&lt;span style=&quot;font-size: 10pt; white-space: pre-wrap; text-align: start;&quot;&gt;for an&amp;nbsp;&lt;/span&gt;&lt;/div&gt;&lt;div style=&quot;&quot;&gt;&lt;span style=&quot;text-align: start;&quot;&gt;&lt;span style=&quot;font-size: 10pt; font-variant-ligatures: normal; font-variant-alternates: normal; font-variant-numeric: normal; font-variant-east-asian: normal; font-variant-position: normal; vertical-align: baseline; white-space: pre-wrap;&quot;&gt;out-of-service machine &lt;/span&gt;&lt;/span&gt;&lt;br&gt;&lt;/div&gt;" style="ellipse;whiteSpace=wrap;html=1;fontFamily=Helvetica;align=center;fillColor=#cdeb8b;strokeColor=#36393d;" vertex="1" parent="1">
          <mxGeometry x="319" y="1030" width="190" height="90" as="geometry" />
        </mxCell>
        <mxCell id="7N9ErN9xzrsb4zZOUDLl-71" value="&lt;b id=&quot;docs-internal-guid-d2856b3a-7fff-cc58-a23c-3f457dca3ddc&quot; style=&quot;font-style: normal; font-variant-caps: normal; letter-spacing: normal; text-align: start; text-indent: 0px; text-transform: none; white-space: normal; word-spacing: 0px; -webkit-text-stroke-width: 0px; text-decoration: none; caret-color: rgb(0, 0, 0); color: rgb(0, 0, 0); font-weight: normal;&quot;&gt;&lt;span style=&quot;font-size: 10pt; color: rgb(0, 0, 0); background-color: transparent; font-weight: 400; font-style: normal; font-variant-ligatures: normal; font-variant-caps: normal; font-variant-alternates: normal; font-variant-numeric: normal; font-variant-east-asian: normal; font-variant-position: normal; text-decoration: none; vertical-align: baseline; white-space: pre-wrap;&quot;&gt;Report issues of an &lt;/span&gt;&lt;/b&gt;&lt;span style=&quot;font-size: 13.3333px; text-align: start; white-space: pre-wrap;&quot;&gt;out-of-service machine&lt;/span&gt;" style="ellipse;whiteSpace=wrap;html=1;fontFamily=Helvetica;align=center;fillColor=#b0e3e6;strokeColor=#0e8088;" vertex="1" parent="1">
          <mxGeometry x="490" y="1240" width="180" height="100" as="geometry" />
        </mxCell>
        <mxCell id="7N9ErN9xzrsb4zZOUDLl-72" style="rounded=0;orthogonalLoop=1;jettySize=auto;html=1;exitX=0.5;exitY=0.5;exitDx=0;exitDy=0;exitPerimeter=0;entryX=0;entryY=0.5;entryDx=0;entryDy=0;endArrow=none;startFill=0;fontFamily=Helvetica;" edge="1" parent="1" source="7N9ErN9xzrsb4zZOUDLl-12" target="7N9ErN9xzrsb4zZOUDLl-45">
          <mxGeometry relative="1" as="geometry">
            <mxPoint x="90" y="1434" as="sourcePoint" />
            <mxPoint x="296" y="1390" as="targetPoint" />
          </mxGeometry>
        </mxCell>
        <mxCell id="7N9ErN9xzrsb4zZOUDLl-73" value="&lt;b id=&quot;docs-internal-guid-32fcb11b-7fff-b375-6a9e-8c0a5c5a669a&quot; style=&quot;font-style: normal; font-variant-caps: normal; letter-spacing: normal; text-align: start; text-indent: 0px; text-transform: none; white-space: normal; word-spacing: 0px; -webkit-text-stroke-width: 0px; text-decoration: none; caret-color: rgb(0, 0, 0); color: rgb(0, 0, 0); font-weight: normal;&quot;&gt;&lt;span style=&quot;font-size: 10pt; color: rgb(0, 0, 0); background-color: transparent; font-weight: 400; font-style: normal; font-variant-ligatures: normal; font-variant-caps: normal; font-variant-alternates: normal; font-variant-numeric: normal; font-variant-east-asian: normal; font-variant-position: normal; text-decoration: none; vertical-align: baseline; white-space: pre-wrap;&quot;&gt;Contacts a local consulting company for machine repairs&lt;/span&gt;&lt;/b&gt;" style="ellipse;whiteSpace=wrap;html=1;fontFamily=Helvetica;fillColor=#b0e3e6;strokeColor=#0e8088;" vertex="1" parent="1">
          <mxGeometry x="332.5" y="1500" width="215" height="80" as="geometry" />
        </mxCell>
        <mxCell id="7N9ErN9xzrsb4zZOUDLl-74" style="rounded=0;orthogonalLoop=1;jettySize=auto;html=1;exitX=0.5;exitY=0.5;exitDx=0;exitDy=0;exitPerimeter=0;entryX=0;entryY=0.5;entryDx=0;entryDy=0;endArrow=none;startFill=0;fontFamily=Helvetica;" edge="1" parent="1" source="7N9ErN9xzrsb4zZOUDLl-12" target="7N9ErN9xzrsb4zZOUDLl-73">
          <mxGeometry relative="1" as="geometry">
            <mxPoint x="100" y="1370" as="sourcePoint" />
            <mxPoint x="315" y="1395" as="targetPoint" />
          </mxGeometry>
        </mxCell>
        <mxCell id="7N9ErN9xzrsb4zZOUDLl-75" style="rounded=0;orthogonalLoop=1;jettySize=auto;html=1;exitX=0.5;exitY=0.5;exitDx=0;exitDy=0;exitPerimeter=0;entryX=0;entryY=0.5;entryDx=0;entryDy=0;endArrow=none;startFill=0;fontFamily=Helvetica;" edge="1" parent="1" source="7N9ErN9xzrsb4zZOUDLl-30" target="7N9ErN9xzrsb4zZOUDLl-70">
          <mxGeometry relative="1" as="geometry">
            <mxPoint x="95" y="860" as="sourcePoint" />
            <mxPoint x="521" y="1110" as="targetPoint" />
          </mxGeometry>
        </mxCell>
        <mxCell id="7N9ErN9xzrsb4zZOUDLl-76" value="&amp;lt;&amp;lt;extend&amp;gt;&amp;gt;" style="html=1;startArrow=open;endArrow=none;startSize=12;verticalAlign=bottom;dashed=1;labelBackgroundColor=none;rounded=0;fontFamily=Helvetica;entryX=0.5;entryY=1;entryDx=0;entryDy=0;exitX=0.5;exitY=0.5;exitDx=0;exitDy=0;exitPerimeter=0;" edge="1" parent="1" source="7N9ErN9xzrsb4zZOUDLl-12" target="7N9ErN9xzrsb4zZOUDLl-71">
          <mxGeometry width="160" relative="1" as="geometry">
            <mxPoint x="80" y="1580" as="sourcePoint" />
            <mxPoint x="690" y="1310" as="targetPoint" />
          </mxGeometry>
        </mxCell>
        <mxCell id="7N9ErN9xzrsb4zZOUDLl-77" value="&lt;font&gt;Identify products to add to inventory&lt;/font&gt;" style="ellipse;whiteSpace=wrap;html=1;fontFamily=Helvetica;fillColor=#ffcccc;strokeColor=#36393d;" vertex="1" parent="1">
          <mxGeometry x="510" y="330" width="140" height="70" as="geometry" />
        </mxCell>
        <mxCell id="7N9ErN9xzrsb4zZOUDLl-78" style="edgeStyle=orthogonalEdgeStyle;rounded=0;orthogonalLoop=1;jettySize=auto;html=1;exitX=1;exitY=0.5;exitDx=0;exitDy=0;endArrow=none;startFill=0;entryX=0.5;entryY=0.5;entryDx=0;entryDy=0;entryPerimeter=0;" edge="1" parent="1" source="7N9ErN9xzrsb4zZOUDLl-77" target="oWFYHkPTToZGKH1NmmTU-7">
          <mxGeometry relative="1" as="geometry">
            <mxPoint x="1180" y="892.5" as="targetPoint" />
            <Array as="points">
              <mxPoint x="650" y="360" />
              <mxPoint x="995" y="360" />
            </Array>
            <mxPoint x="840" y="327.5" as="sourcePoint" />
          </mxGeometry>
        </mxCell>
        <mxCell id="7N9ErN9xzrsb4zZOUDLl-79" value="&amp;lt;&amp;lt;include&amp;gt;&amp;gt;" style="edgeStyle=none;html=1;endArrow=open;verticalAlign=bottom;dashed=1;labelBackgroundColor=none;rounded=0;exitX=1;exitY=0.5;exitDx=0;exitDy=0;entryX=0;entryY=0.5;entryDx=0;entryDy=0;fontFamily=Helvetica;" edge="1" parent="1" source="7N9ErN9xzrsb4zZOUDLl-43" target="7N9ErN9xzrsb4zZOUDLl-77">
          <mxGeometry width="160" relative="1" as="geometry">
            <mxPoint x="390" y="258" as="sourcePoint" />
            <mxPoint x="540" y="260" as="targetPoint" />
          </mxGeometry>
        </mxCell>
        <mxCell id="oWFYHkPTToZGKH1NmmTU-2" value="" style="rounded=0;orthogonalLoop=1;jettySize=auto;html=1;exitX=0.5;exitY=0.5;exitDx=0;exitDy=0;exitPerimeter=0;entryX=0;entryY=0.5;entryDx=0;entryDy=0;fontFamily=Helvetica;endArrow=none;startFill=0;" edge="1" parent="1" source="7N9ErN9xzrsb4zZOUDLl-16" target="oWFYHkPTToZGKH1NmmTU-1">
          <mxGeometry relative="1" as="geometry">
            <mxPoint x="475" y="482" as="targetPoint" />
            <mxPoint x="75" y="477" as="sourcePoint" />
          </mxGeometry>
        </mxCell>
        <mxCell id="oWFYHkPTToZGKH1NmmTU-1" value="Read the order record" style="ellipse;whiteSpace=wrap;html=1;fontFamily=Helvetica;fillColor=#ffcc99;strokeColor=#36393d;" vertex="1" parent="1">
          <mxGeometry x="215" y="437" width="140" height="70" as="geometry" />
        </mxCell>
        <mxCell id="oWFYHkPTToZGKH1NmmTU-3" value="&amp;lt;&amp;lt;Order Entry System&amp;gt;&amp;gt;" style="shape=umlActor;verticalLabelPosition=bottom;verticalAlign=top;html=1;outlineConnect=0;" vertex="1" parent="1">
          <mxGeometry x="980" y="190" width="30" height="60" as="geometry" />
        </mxCell>
        <mxCell id="oWFYHkPTToZGKH1NmmTU-36" style="edgeStyle=orthogonalEdgeStyle;rounded=0;orthogonalLoop=1;jettySize=auto;html=1;exitX=0.5;exitY=0.5;exitDx=0;exitDy=0;exitPerimeter=0;entryX=1;entryY=0.5;entryDx=0;entryDy=0;endArrow=none;startFill=0;" edge="1" parent="1" source="oWFYHkPTToZGKH1NmmTU-7" target="oWFYHkPTToZGKH1NmmTU-35">
          <mxGeometry relative="1" as="geometry">
            <mxPoint x="994.666666666667" y="820" as="targetPoint" />
            <Array as="points">
              <mxPoint x="995" y="1219" />
            </Array>
          </mxGeometry>
        </mxCell>
        <mxCell id="oWFYHkPTToZGKH1NmmTU-7" value="&amp;lt;&amp;lt;Inventory System&amp;gt;&amp;gt;" style="shape=umlActor;verticalLabelPosition=bottom;verticalAlign=top;html=1;outlineConnect=0;" vertex="1" parent="1">
          <mxGeometry x="980" y="700" width="30" height="60" as="geometry" />
        </mxCell>
        <mxCell id="oWFYHkPTToZGKH1NmmTU-11" style="edgeStyle=orthogonalEdgeStyle;rounded=0;orthogonalLoop=1;jettySize=auto;html=1;exitX=1;exitY=0.5;exitDx=0;exitDy=0;endArrow=none;startFill=0;entryX=0.5;entryY=0.5;entryDx=0;entryDy=0;entryPerimeter=0;" edge="1" parent="1" source="7N9ErN9xzrsb4zZOUDLl-40" target="oWFYHkPTToZGKH1NmmTU-7">
          <mxGeometry relative="1" as="geometry" />
        </mxCell>
        <mxCell id="oWFYHkPTToZGKH1NmmTU-12" value="Purchase products" style="ellipse;whiteSpace=wrap;html=1;fontFamily=Helvetica;fillColor=#ffcc99;strokeColor=#36393d;" vertex="1" parent="1">
          <mxGeometry x="190" y="530" width="140" height="70" as="geometry" />
        </mxCell>
        <mxCell id="zfL5lBy1NJpw4TBHaLBK-1" style="rounded=0;orthogonalLoop=1;jettySize=auto;html=1;endArrow=none;startFill=0;" edge="1" parent="1" source="zfL5lBy1NJpw4TBHaLBK-2">
          <mxGeometry relative="1" as="geometry">
            <mxPoint x="80" y="850" as="targetPoint" />
          </mxGeometry>
        </mxCell>
        <mxCell id="zfL5lBy1NJpw4TBHaLBK-2" value="&lt;b style=&quot;font-style: normal; font-variant-caps: normal; letter-spacing: normal; text-align: start; text-indent: 0px; text-transform: none; white-space: normal; word-spacing: 0px; -webkit-text-stroke-width: 0px; text-decoration: none; caret-color: rgb(0, 0, 0); color: rgb(0, 0, 0); font-weight: normal;&quot; id=&quot;docs-internal-guid-5e451ebb-7fff-aa71-9ea9-499701272533&quot;&gt;&lt;span style=&quot;font-size: 10pt; color: rgb(0, 0, 0); background-color: transparent; font-weight: 400; font-style: normal; font-variant-ligatures: normal; font-variant-caps: normal; font-variant-alternates: normal; font-variant-numeric: normal; font-variant-east-asian: normal; font-variant-position: normal; text-decoration: none; vertical-align: baseline; white-space: pre-wrap;&quot;&gt;Return stale-dated merchandise&lt;/span&gt;&lt;/b&gt;" style="ellipse;whiteSpace=wrap;html=1;fontFamily=Helvetica;fillColor=#cdeb8b;strokeColor=#36393d;movable=1;resizable=1;rotatable=1;deletable=1;editable=1;locked=0;connectable=1;" vertex="1" parent="1">
          <mxGeometry x="224.5" y="810" width="160" height="80" as="geometry" />
        </mxCell>
        <mxCell id="zfL5lBy1NJpw4TBHaLBK-3" value="&amp;lt;&amp;lt;include&amp;gt;&amp;gt;" style="edgeStyle=none;html=1;endArrow=open;verticalAlign=bottom;dashed=1;labelBackgroundColor=none;rounded=0;exitX=1;exitY=0.5;exitDx=0;exitDy=0;fontFamily=Helvetica;movable=1;resizable=1;rotatable=1;deletable=1;editable=1;locked=0;connectable=1;entryX=0;entryY=0.5;entryDx=0;entryDy=0;" edge="1" parent="1" source="zfL5lBy1NJpw4TBHaLBK-2" target="zfL5lBy1NJpw4TBHaLBK-5">
          <mxGeometry width="160" relative="1" as="geometry">
            <mxPoint x="414" y="697" as="sourcePoint" />
            <mxPoint x="640" y="750" as="targetPoint" />
          </mxGeometry>
        </mxCell>
        <mxCell id="zfL5lBy1NJpw4TBHaLBK-5" value="&lt;b style=&quot;font-style: normal; font-variant-caps: normal; letter-spacing: normal; text-align: start; text-indent: 0px; text-transform: none; white-space: normal; word-spacing: 0px; -webkit-text-stroke-width: 0px; text-decoration: none; caret-color: rgb(0, 0, 0); color: rgb(0, 0, 0); font-weight: normal;&quot; id=&quot;docs-internal-guid-5e451ebb-7fff-aa71-9ea9-499701272533&quot;&gt;&lt;span style=&quot;font-size: 10pt; color: rgb(0, 0, 0); background-color: transparent; font-weight: 400; font-style: normal; font-variant-ligatures: normal; font-variant-caps: normal; font-variant-alternates: normal; font-variant-numeric: normal; font-variant-east-asian: normal; font-variant-position: normal; text-decoration: none; vertical-align: baseline; white-space: pre-wrap;&quot;&gt;Record the returned &lt;/span&gt;&lt;/b&gt;&lt;span style=&quot;color: rgb(0, 0, 0); text-align: start; caret-color: rgb(0, 0, 0);&quot; id=&quot;docs-internal-guid-5e451ebb-7fff-aa71-9ea9-499701272533&quot;&gt;&lt;span style=&quot;font-size: 10pt; color: rgb(0, 0, 0); background-color: transparent; font-variant-alternates: normal; font-variant-numeric: normal; font-variant-east-asian: normal; font-variant-position: normal; vertical-align: baseline; white-space-collapse: preserve;&quot;&gt;merchandise&lt;/span&gt;&lt;/span&gt;" style="ellipse;whiteSpace=wrap;html=1;fontFamily=Helvetica;fillColor=#cdeb8b;strokeColor=#36393d;movable=1;resizable=1;rotatable=1;deletable=1;editable=1;locked=0;connectable=1;" vertex="1" parent="1">
          <mxGeometry x="550" y="810" width="160" height="80" as="geometry" />
        </mxCell>
        <mxCell id="oWFYHkPTToZGKH1NmmTU-23" value="&lt;font&gt;Determine stock products and quantities&lt;/font&gt;" style="ellipse;whiteSpace=wrap;html=1;fontFamily=Helvetica;fillColor=#ffcc99;strokeColor=#36393d;" vertex="1" parent="1">
          <mxGeometry x="435" y="437" width="150" height="80" as="geometry" />
        </mxCell>
        <mxCell id="7N9ErN9xzrsb4zZOUDLl-20" style="rounded=0;orthogonalLoop=1;jettySize=auto;html=1;exitX=0.5;exitY=0.5;exitDx=0;exitDy=0;exitPerimeter=0;entryX=0;entryY=0.5;entryDx=0;entryDy=0;fontFamily=Helvetica;endArrow=none;startFill=0;" edge="1" parent="1" source="7N9ErN9xzrsb4zZOUDLl-21" target="7N9ErN9xzrsb4zZOUDLl-37">
          <mxGeometry relative="1" as="geometry">
            <mxPoint x="200" y="1010" as="targetPoint" />
          </mxGeometry>
        </mxCell>
        <mxCell id="oWFYHkPTToZGKH1NmmTU-28" value="Read purchase list&amp;nbsp;" style="ellipse;whiteSpace=wrap;html=1;fontFamily=Helvetica;fillColor=#ffcc99;strokeColor=#36393d;" vertex="1" parent="1">
          <mxGeometry x="310" y="614.5" width="140" height="70" as="geometry" />
        </mxCell>
        <mxCell id="oWFYHkPTToZGKH1NmmTU-33" style="edgeStyle=orthogonalEdgeStyle;rounded=0;orthogonalLoop=1;jettySize=auto;html=1;exitX=1;exitY=0.5;exitDx=0;exitDy=0;endArrow=none;startFill=0;" edge="1" parent="1" source="oWFYHkPTToZGKH1NmmTU-32" target="oWFYHkPTToZGKH1NmmTU-7">
          <mxGeometry relative="1" as="geometry">
            <Array as="points">
              <mxPoint x="995" y="650" />
            </Array>
          </mxGeometry>
        </mxCell>
        <mxCell id="oWFYHkPTToZGKH1NmmTU-32" value="Confirm inventory quantity&amp;nbsp;" style="ellipse;whiteSpace=wrap;html=1;fontFamily=Helvetica;fillColor=#ffcc99;strokeColor=#36393d;" vertex="1" parent="1">
          <mxGeometry x="585" y="614.5" width="140" height="70" as="geometry" />
        </mxCell>
        <mxCell id="oWFYHkPTToZGKH1NmmTU-35" value="&lt;b style=&quot;font-style: normal; font-variant-caps: normal; letter-spacing: normal; text-align: start; text-indent: 0px; text-transform: none; white-space: normal; word-spacing: 0px; -webkit-text-stroke-width: 0px; text-decoration: none; caret-color: rgb(0, 0, 0); color: rgb(0, 0, 0); font-weight: normal;&quot; id=&quot;docs-internal-guid-32a659cb-7fff-415b-46f4-145acd59982e&quot;&gt;&lt;span style=&quot;font-size: 10pt; color: rgb(0, 0, 0); background-color: transparent; font-weight: 400; font-style: normal; font-variant-ligatures: normal; font-variant-caps: normal; font-variant-alternates: normal; font-variant-numeric: normal; font-variant-east-asian: normal; font-variant-position: normal; text-decoration: none; vertical-align: baseline; white-space: pre-wrap;&quot;&gt;Generate machine sales report&lt;/span&gt;&lt;/b&gt;" style="ellipse;whiteSpace=wrap;html=1;fontFamily=Helvetica;fillColor=#FFFF88;strokeColor=#36393d;" vertex="1" parent="1">
          <mxGeometry x="720" y="1180" width="159" height="78.5" as="geometry" />
        </mxCell>
        <mxCell id="dzyratWAwEPBvVzh546w-1" value="&amp;lt;&amp;lt;include&amp;gt;&amp;gt;" style="edgeStyle=none;html=1;endArrow=open;verticalAlign=bottom;dashed=1;labelBackgroundColor=none;rounded=0;exitX=1;exitY=0.5;exitDx=0;exitDy=0;entryX=0;entryY=0.5;entryDx=0;entryDy=0;fontFamily=Helvetica;" edge="1" parent="1" source="oWFYHkPTToZGKH1NmmTU-1" target="oWFYHkPTToZGKH1NmmTU-23">
          <mxGeometry width="160" relative="1" as="geometry">
            <mxPoint x="330" y="445.46" as="sourcePoint" />
            <mxPoint x="440" y="445.46" as="targetPoint" />
          </mxGeometry>
        </mxCell>
        <mxCell id="dzyratWAwEPBvVzh546w-2" value="&amp;lt;&amp;lt;include&amp;gt;&amp;gt;" style="edgeStyle=none;html=1;endArrow=open;verticalAlign=bottom;dashed=1;labelBackgroundColor=none;rounded=0;exitX=1;exitY=0.5;exitDx=0;exitDy=0;entryX=0;entryY=0.5;entryDx=0;entryDy=0;fontFamily=Helvetica;" edge="1" parent="1" source="oWFYHkPTToZGKH1NmmTU-23" target="7N9ErN9xzrsb4zZOUDLl-40">
          <mxGeometry width="160" relative="1" as="geometry">
            <mxPoint x="570" y="535" as="sourcePoint" />
            <mxPoint x="654" y="530" as="targetPoint" />
          </mxGeometry>
        </mxCell>
        <mxCell id="dzyratWAwEPBvVzh546w-3" value="&amp;lt;&amp;lt;include&amp;gt;&amp;gt;" style="edgeStyle=none;html=1;endArrow=open;verticalAlign=bottom;dashed=1;labelBackgroundColor=none;rounded=0;exitX=1;exitY=0.5;exitDx=0;exitDy=0;fontFamily=Helvetica;" edge="1" parent="1" source="oWFYHkPTToZGKH1NmmTU-28" target="oWFYHkPTToZGKH1NmmTU-32">
          <mxGeometry width="160" relative="1" as="geometry">
            <mxPoint x="499" y="620" as="sourcePoint" />
            <mxPoint x="579" y="625" as="targetPoint" />
          </mxGeometry>
        </mxCell>
        <mxCell id="43n4Quq9ew5v-RksAew7-1" value="&amp;lt;&amp;lt;extend&amp;gt;&amp;gt;" style="edgeStyle=none;html=1;startArrow=open;endArrow=none;startSize=12;verticalAlign=bottom;dashed=1;labelBackgroundColor=none;rounded=0;exitX=1;exitY=0.5;exitDx=0;exitDy=0;entryX=0.5;entryY=0;entryDx=0;entryDy=0;" edge="1" parent="1" source="7N9ErN9xzrsb4zZOUDLl-53" target="oWFYHkPTToZGKH1NmmTU-35">
          <mxGeometry width="160" relative="1" as="geometry">
            <mxPoint x="480" y="720" as="sourcePoint" />
            <mxPoint x="640" y="720" as="targetPoint" />
            <Array as="points">
              <mxPoint x="800" y="749" />
            </Array>
          </mxGeometry>
        </mxCell>
        <mxCell id="G_IZu5KmMO_mAf_h5KCi-3" style="edgeStyle=orthogonalEdgeStyle;rounded=0;orthogonalLoop=1;jettySize=auto;html=1;exitX=0.5;exitY=1;exitDx=0;exitDy=0;" edge="1" parent="1" source="7N9ErN9xzrsb4zZOUDLl-54" target="7N9ErN9xzrsb4zZOUDLl-54">
          <mxGeometry relative="1" as="geometry" />
        </mxCell>
        <mxCell id="BsNlR2tRKrVO66B6Cdyx-2" value="&amp;lt;&amp;lt;include&amp;gt;&amp;gt;" style="edgeStyle=none;html=1;endArrow=open;verticalAlign=bottom;dashed=1;labelBackgroundColor=none;rounded=0;exitX=1;exitY=0;exitDx=0;exitDy=0;fontFamily=Helvetica;movable=1;resizable=1;rotatable=1;deletable=1;editable=1;locked=0;connectable=1;entryX=0;entryY=0.5;entryDx=0;entryDy=0;" edge="1" parent="1" source="7N9ErN9xzrsb4zZOUDLl-54" target="7N9ErN9xzrsb4zZOUDLl-68">
          <mxGeometry width="160" relative="1" as="geometry">
            <mxPoint x="350" y="1860" as="sourcePoint" />
            <mxPoint x="435" y="1860" as="targetPoint" />
          </mxGeometry>
        </mxCell>
        <mxCell id="43n4Quq9ew5v-RksAew7-5" value="Check machine&#39;s cash match with sales report" style="ellipse;whiteSpace=wrap;html=1;fontFamily=Helvetica;fillColor=#FFFF88;strokeColor=#0e8088;" vertex="1" parent="1">
          <mxGeometry x="460" y="1970" width="180" height="70" as="geometry" />
        </mxCell>
        <mxCell id="43n4Quq9ew5v-RksAew7-7" value="&amp;lt;&amp;lt;include&amp;gt;&amp;gt;" style="edgeStyle=none;html=1;endArrow=open;verticalAlign=bottom;dashed=1;labelBackgroundColor=none;rounded=0;exitX=0.5;exitY=1;exitDx=0;exitDy=0;fontFamily=Helvetica;movable=1;resizable=1;rotatable=1;deletable=1;editable=1;locked=0;connectable=1;entryX=1;entryY=0.5;entryDx=0;entryDy=0;" edge="1" parent="1" source="oWFYHkPTToZGKH1NmmTU-35" target="43n4Quq9ew5v-RksAew7-5">
          <mxGeometry width="160" relative="1" as="geometry">
            <mxPoint x="680" y="1470" as="sourcePoint" />
            <mxPoint x="810" y="2000" as="targetPoint" />
            <Array as="points">
              <mxPoint x="800" y="2010" />
            </Array>
          </mxGeometry>
        </mxCell>
      </root>
    </mxGraphModel>
  </diagram>
</mxfile>
